<?xml version="1.0" standalone="no"?>
<!DOCTYPE svg PUBLIC "-//W3C//DTD SVG 20010904//EN"
 "http://www.w3.org/TR/2001/REC-SVG-20010904/DTD/svg10.dtd">
<svg version="1.0" xmlns="http://www.w3.org/2000/svg"
 width="2000.000000pt" height="2000.000000pt" viewBox="0 0 2000.000000 2000.000000"
 preserveAspectRatio="xMidYMid meet">
<metadata>
Created by potrace 1.14, written by Peter Selinger 2001-2017
</metadata>
<g transform="translate(0.000000,2000.000000) scale(0.100000,-0.100000)"
fill="#000000" stroke="none">
<path d="M9723 19799 c-6 -6 -39 -11 -74 -12 -35 -1 -70 -6 -78 -11 -8 -5 -16
-4 -22 5 -8 12 -10 12 -18 0 -7 -11 -9 -11 -14 0 -3 9 -6 10 -6 2 -1 -7 -11
-10 -26 -7 -16 3 -25 0 -25 -8 0 -8 -3 -9 -8 -3 -7 11 -52 16 -52 6 0 -3 -19
-6 -42 -5 -24 0 -46 -4 -50 -10 -6 -8 -8 -8 -8 0 0 11 -35 12 -46 1 -4 -4 -14
-1 -22 6 -9 6 -13 7 -9 1 4 -7 -7 -12 -31 -13 -75 -4 -87 -6 -94 -16 -5 -6 -8
-5 -8 3 0 6 -5 12 -11 12 -5 0 -8 -4 -5 -8 6 -11 -25 -9 -43 3 -9 5 -12 4 -7
-3 3 -6 2 -13 -4 -17 -5 -3 -10 -1 -10 5 0 7 -6 8 -17 2 -10 -5 -33 -8 -50 -7
-18 1 -33 -3 -33 -8 0 -5 -8 -3 -17 4 -14 12 -16 12 -8 0 6 -11 3 -13 -13 -9
-12 4 -22 2 -22 -4 0 -5 -9 -7 -20 -3 -10 3 -28 1 -40 -5 -15 -8 -20 -8 -20 1
0 8 -4 8 -12 2 -7 -6 -21 -11 -30 -12 -10 0 -26 -2 -35 -2 -10 -1 -24 -7 -32
-13 -12 -9 -13 -8 -6 4 6 12 5 13 -6 3 -7 -7 -17 -13 -22 -13 -4 0 -5 6 -1 13
6 8 3 8 -9 -1 -9 -8 -32 -14 -51 -15 -19 0 -33 -4 -31 -7 2 -4 -9 -6 -25 -5
-17 1 -30 -1 -30 -5 0 -4 -11 -6 -25 -5 -14 2 -25 0 -25 -3 0 -4 -16 -8 -36
-10 -19 -1 -45 -7 -56 -13 -15 -8 -19 -8 -14 0 4 6 2 11 -3 11 -6 0 -11 -5
-11 -11 0 -6 -9 -9 -20 -6 -11 3 -20 1 -20 -3 0 -5 -11 -7 -25 -6 -13 2 -22 0
-20 -5 3 -4 -4 -8 -15 -8 -11 -1 -29 -1 -40 -2 -11 0 -18 -4 -16 -8 3 -4 -7
-6 -22 -6 -15 1 -38 -5 -51 -13 -13 -8 -21 -10 -17 -4 6 10 -48 -6 -73 -22
-10 -6 -12 -6 -7 3 5 8 1 9 -16 2 -24 -10 -76 -24 -93 -26 -5 0 -16 -4 -22 -8
-7 -5 -13 -5 -13 -1 0 3 -6 2 -12 -3 -7 -5 -20 -9 -28 -8 -8 0 -21 -6 -27 -15
-11 -13 -14 -13 -23 0 -7 11 -10 11 -10 2 0 -7 -4 -10 -10 -7 -5 3 -10 2 -10
-2 0 -5 -8 -9 -17 -10 -16 -1 -50 -9 -63 -13 -3 -1 -8 -2 -12 -1 -5 0 -8 -3
-8 -8 0 -5 -8 -8 -17 -6 -10 1 -24 -2 -30 -8 -7 -5 -13 -6 -13 -2 0 4 -7 2
-15 -5 -9 -7 -26 -14 -38 -14 -12 -1 -28 -5 -34 -9 -7 -5 -13 -5 -13 0 0 4 -4
3 -8 -4 -4 -7 -21 -14 -38 -17 -17 -3 -47 -13 -67 -21 -20 -8 -46 -15 -57 -15
-11 0 -20 -5 -20 -11 0 -5 -4 -7 -10 -4 -5 3 -10 1 -10 -5 0 -6 -4 -9 -8 -6
-5 3 -20 -1 -33 -8 -14 -7 -34 -12 -46 -11 -12 1 -20 -2 -17 -7 3 -4 2 -8 -3
-9 -27 -2 -47 -9 -52 -17 -3 -5 -16 -8 -28 -7 -13 1 -23 -2 -23 -7 0 -4 -7 -8
-15 -8 -8 0 -15 -4 -15 -9 0 -6 -9 -8 -20 -6 -11 2 -20 1 -20 -3 0 -9 -67 -33
-97 -35 -11 -1 -19 -5 -17 -8 4 -7 -41 -29 -61 -29 -8 0 -15 -5 -15 -11 0 -5
-4 -7 -10 -4 -5 3 -10 -2 -10 -12 0 -10 -3 -14 -8 -8 -10 15 -31 13 -41 -3 -5
-8 -12 -14 -17 -14 -5 0 -19 -4 -32 -9 -13 -5 -28 -9 -33 -9 -6 0 -7 -5 -3
-12 4 -7 3 -8 -5 -4 -6 4 -18 2 -26 -4 -8 -6 -19 -9 -25 -5 -5 3 -10 1 -10 -4
0 -6 -7 -11 -15 -11 -8 0 -15 -5 -15 -10 0 -6 -3 -9 -7 -8 -5 1 -18 -3 -29
-10 -12 -6 -24 -8 -28 -5 -3 3 -6 1 -6 -5 0 -7 -9 -12 -20 -12 -11 0 -20 -4
-20 -8 0 -8 -60 -36 -73 -33 -4 1 -14 -4 -22 -11 -33 -30 -42 -35 -58 -32 -9
1 -17 -2 -17 -7 0 -5 -5 -9 -11 -9 -6 0 -17 -7 -26 -15 -8 -8 -19 -13 -24 -10
-5 4 -9 1 -9 -5 0 -6 -4 -9 -9 -5 -5 3 -12 1 -16 -5 -3 -5 -26 -19 -51 -30
-24 -11 -44 -25 -44 -30 0 -5 -7 -7 -15 -4 -8 4 -15 1 -15 -5 0 -6 -9 -11 -20
-11 -11 0 -20 -4 -20 -8 0 -8 -73 -47 -77 -41 -1 2 -8 -5 -16 -15 -8 -10 -18
-16 -24 -13 -5 3 -15 -3 -23 -13 -8 -10 -17 -17 -21 -15 -3 3 -17 -4 -29 -15
-13 -11 -29 -20 -36 -20 -7 0 -18 -8 -23 -17 -6 -10 -11 -14 -11 -9 0 5 -9 1
-20 -9 -11 -10 -20 -15 -20 -11 0 4 -10 -3 -22 -14 -12 -11 -28 -18 -36 -15
-7 2 -11 1 -8 -4 3 -4 -6 -14 -19 -21 -14 -7 -25 -17 -25 -21 0 -5 -6 -6 -14
-3 -7 3 -16 -2 -20 -11 -3 -9 -10 -14 -15 -10 -6 3 -14 -3 -20 -12 -6 -10 -11
-13 -11 -8 0 6 -3 6 -8 -1 -4 -6 -40 -32 -79 -58 -40 -26 -73 -51 -73 -56 0
-5 -6 -7 -14 -4 -7 3 -16 -2 -20 -11 -3 -9 -10 -14 -15 -11 -5 3 -12 -1 -15
-10 -4 -9 -9 -14 -13 -11 -3 4 -15 -5 -26 -19 -10 -14 -26 -23 -33 -20 -8 3
-14 -1 -14 -9 0 -13 -36 -31 -53 -27 -5 1 -6 -1 -4 -5 3 -5 -1 -14 -9 -21 -8
-7 -14 -10 -14 -7 0 3 -9 -3 -19 -12 -35 -32 -51 -44 -51 -38 0 3 -11 -5 -24
-19 -13 -15 -27 -26 -31 -26 -4 0 -16 -10 -26 -22 -11 -11 -19 -17 -19 -13 0
4 -11 -4 -24 -18 -13 -14 -27 -23 -30 -20 -3 4 -6 1 -6 -5 0 -7 -7 -12 -16
-12 -8 0 -13 -4 -10 -9 6 -9 -22 -26 -36 -23 -5 1 -8 -5 -8 -13 0 -8 -3 -15
-7 -15 -7 0 -34 -20 -83 -62 -8 -7 -18 -12 -22 -11 -5 2 -7 0 -5 -5 1 -4 -2
-8 -6 -9 -4 -1 -26 -21 -47 -43 -22 -23 -40 -39 -40 -36 0 3 -18 -12 -40 -34
-22 -22 -43 -40 -48 -40 -4 0 -13 -9 -20 -20 -7 -12 -17 -18 -22 -15 -6 3 -10
0 -10 -8 0 -8 -7 -18 -16 -21 -8 -3 -12 -11 -8 -17 4 -7 3 -9 -4 -5 -6 3 -17
-3 -25 -14 -7 -11 -16 -17 -19 -14 -4 3 -9 -4 -13 -15 -4 -13 -15 -21 -28 -21
-18 0 -19 -2 -7 -10 11 -7 11 -10 2 -10 -7 0 -30 -18 -52 -40 -22 -22 -45 -40
-51 -40 -7 0 -10 -3 -6 -6 8 -9 -34 -54 -51 -54 -9 0 -13 -3 -10 -6 4 -3 -31
-43 -77 -89 -46 -46 -80 -86 -77 -89 3 -3 -2 -6 -12 -6 -9 0 -15 -3 -13 -7 3
-5 -1 -14 -9 -21 -8 -7 -14 -9 -14 -5 0 4 -10 -7 -21 -24 -12 -18 -25 -33 -31
-33 -5 0 -7 -4 -3 -9 3 -5 -4 -12 -15 -16 -11 -3 -20 -10 -20 -15 0 -10 -57
-75 -120 -139 -19 -19 -28 -31 -20 -26 8 5 -4 -11 -28 -35 -23 -24 -42 -50
-42 -58 0 -7 -4 -11 -8 -8 -5 3 -15 -6 -22 -19 -7 -14 -17 -25 -22 -25 -4 0
-8 -7 -8 -16 0 -8 -4 -12 -10 -9 -5 3 -10 -1 -10 -9 0 -9 -4 -16 -10 -16 -5 0
-10 -7 -10 -16 0 -8 -5 -12 -10 -9 -5 3 -10 -1 -10 -9 0 -9 -4 -16 -8 -16 -5
0 -15 -11 -22 -25 -7 -13 -17 -22 -22 -19 -5 3 -8 2 -7 -3 5 -22 -30 -73 -51
-73 -6 0 -9 -4 -5 -10 3 -5 -3 -18 -15 -30 -11 -11 -20 -22 -20 -25 0 -3 -11
-18 -24 -32 -14 -15 -23 -30 -20 -34 2 -4 -5 -10 -16 -14 -11 -4 -18 -10 -15
-14 4 -7 -4 -20 -45 -68 -5 -7 -10 -16 -10 -20 0 -5 -11 -21 -25 -36 -14 -15
-22 -27 -18 -27 4 0 -1 -7 -11 -15 -11 -8 -16 -15 -10 -15 5 0 0 -7 -10 -15
-11 -8 -16 -15 -12 -15 4 0 1 -7 -6 -15 -31 -34 -38 -45 -31 -45 4 0 -1 -7
-11 -15 -11 -8 -16 -15 -10 -15 5 0 2 -6 -7 -13 -9 -7 -17 -15 -18 -19 -6 -26
-14 -37 -24 -31 -5 3 -7 1 -3 -5 3 -6 0 -17 -8 -25 -8 -8 -12 -17 -9 -21 4 -3
2 -6 -4 -6 -6 0 -16 -13 -23 -30 -7 -16 -17 -27 -23 -23 -5 3 -7 1 -4 -4 4 -6
-3 -22 -14 -37 -11 -14 -17 -26 -12 -26 4 0 1 -6 -7 -13 -15 -12 -32 -38 -58
-89 -7 -16 -18 -28 -23 -28 -6 0 -7 -4 -4 -10 3 -5 1 -10 -5 -10 -6 0 -8 -4
-5 -10 3 -5 2 -10 -3 -10 -4 0 -16 -16 -25 -35 -9 -19 -22 -35 -29 -35 -6 0
-8 -3 -5 -7 4 -3 0 -15 -10 -25 -9 -10 -12 -18 -7 -18 5 0 4 -4 -2 -8 -6 -4
-37 -45 -69 -92 -32 -47 -62 -86 -67 -88 -4 -2 -8 -10 -8 -18 0 -8 -5 -14 -12
-14 -6 0 -8 -3 -5 -7 4 -3 -4 -15 -16 -27 -12 -12 -23 -23 -24 -26 -5 -22 -28
-60 -35 -60 -5 0 -7 -4 -4 -9 4 -5 2 -11 -3 -13 -5 -1 -11 -10 -13 -18 -2 -8
-11 -23 -21 -32 -10 -9 -18 -20 -18 -25 1 -19 -24 -61 -34 -55 -5 3 -3 -3 5
-13 8 -10 10 -16 3 -12 -8 5 -15 -1 -19 -18 -3 -13 -10 -22 -15 -19 -5 3 -6
-2 -3 -10 3 -9 1 -16 -5 -16 -6 0 -10 -3 -9 -7 1 -5 -7 -26 -17 -48 -10 -22
-19 -44 -19 -48 -1 -4 -6 -11 -12 -15 -6 -4 -10 -17 -9 -29 1 -15 -3 -20 -14
-15 -9 3 -13 1 -8 -3 4 -5 -1 -17 -10 -28 -10 -11 -12 -17 -6 -13 7 4 13 2 13
-3 0 -6 -5 -11 -11 -11 -5 0 -7 -4 -4 -10 3 -5 2 -10 -3 -10 -8 0 -26 -43 -19
-46 1 0 -4 -8 -11 -17 -8 -9 -10 -22 -6 -28 4 -8 3 -9 -4 -5 -8 5 -12 0 -12
-13 0 -12 -5 -21 -11 -21 -5 0 -7 -4 -4 -10 3 -5 1 -10 -5 -10 -6 0 -9 -4 -5
-9 3 -5 1 -12 -5 -16 -5 -3 -10 -15 -10 -26 0 -11 -7 -22 -16 -26 -13 -5 -13
-7 -2 -14 10 -7 10 -9 1 -9 -7 0 -13 -4 -13 -9 0 -5 -5 -22 -12 -38 -6 -15
-11 -31 -10 -35 1 -5 -3 -8 -9 -8 -5 0 -8 -4 -4 -9 3 -5 -2 -17 -11 -25 -11
-12 -12 -16 -2 -16 8 0 6 -5 -5 -11 -9 -6 -15 -14 -12 -19 3 -5 1 -11 -4 -15
-6 -3 -8 -11 -5 -18 2 -7 -4 -22 -15 -34 -14 -15 -17 -23 -8 -26 9 -4 9 -6 0
-6 -7 -1 -13 -10 -13 -20 0 -11 -5 -23 -10 -26 -6 -4 -8 -11 -5 -16 4 -5 1 -9
-4 -9 -6 0 -10 -3 -10 -7 3 -16 -14 -72 -20 -69 -4 3 -8 -7 -9 -21 -1 -14 -7
-32 -13 -39 -6 -8 -8 -14 -4 -14 4 0 2 -7 -5 -15 -6 -8 -9 -19 -5 -25 3 -5 1
-10 -4 -10 -6 0 -11 -9 -11 -21 0 -11 -4 -18 -9 -15 -4 3 -7 -6 -5 -19 1 -14
-2 -25 -7 -25 -6 0 -8 -4 -4 -9 3 -5 1 -12 -4 -15 -8 -5 -25 -63 -22 -78 0 -5
-3 -8 -9 -8 -5 0 -7 -7 -4 -15 4 -8 1 -15 -6 -15 -7 0 -10 -7 -6 -15 3 -8 1
-15 -4 -15 -5 0 -6 -7 -3 -17 4 -10 2 -14 -5 -9 -7 4 -10 -1 -7 -14 2 -11 -1
-22 -6 -25 -5 -4 -7 -10 -4 -15 3 -5 1 -11 -5 -15 -6 -4 -8 -11 -5 -16 4 -5 1
-9 -6 -9 -6 0 -9 -8 -6 -20 3 -11 1 -20 -5 -20 -6 0 -8 -7 -4 -15 3 -8 1 -15
-3 -15 -5 0 -12 -7 -15 -16 -4 -10 -2 -13 7 -8 6 4 3 -3 -8 -16 -11 -13 -14
-20 -8 -16 7 4 13 2 13 -3 0 -6 -4 -11 -8 -11 -4 0 -9 -10 -9 -22 -1 -13 -6
-24 -11 -26 -6 -2 -7 -12 -4 -24 3 -14 1 -19 -6 -15 -6 4 -9 0 -7 -10 1 -10
-2 -27 -8 -38 -10 -18 -16 -47 -19 -82 -1 -7 -5 -13 -9 -13 -4 0 -6 -9 -4 -20
2 -11 0 -20 -5 -20 -5 0 -7 -9 -5 -20 2 -11 0 -20 -5 -20 -4 0 -11 -7 -14 -16
-3 -8 -2 -12 4 -9 6 3 10 1 10 -4 0 -6 -4 -11 -9 -11 -6 0 -10 -8 -10 -17 1
-32 -7 -54 -22 -64 -11 -7 -11 -9 0 -9 10 0 10 -6 -4 -26 -11 -18 -12 -24 -4
-18 11 6 12 5 2 -8 -7 -8 -10 -17 -7 -21 3 -3 1 -14 -5 -25 -7 -13 -7 -23 2
-32 9 -10 9 -11 0 -6 -8 5 -13 1 -13 -9 0 -9 -3 -14 -7 -12 -5 3 -8 -14 -8
-36 1 -23 -2 -46 -5 -52 -5 -10 -7 -17 -9 -36 0 -5 -4 -8 -8 -6 -5 3 -8 -9 -9
-26 -1 -47 -8 -87 -14 -87 -3 0 -6 -10 -6 -22 -1 -13 -4 -33 -7 -45 -4 -14 -1
-23 6 -23 7 0 6 -4 -3 -10 -8 -5 -16 -18 -16 -30 -1 -11 -3 -21 -4 -22 -1 -2
-4 -14 -5 -28 -4 -23 -11 -59 -15 -70 -1 -3 -2 -17 -2 -32 -1 -16 -4 -28 -8
-28 -4 0 -6 -14 -4 -31 2 -16 0 -28 -4 -25 -4 2 -8 -12 -8 -32 -2 -48 -7 -65
-19 -74 -6 -5 -5 -8 3 -8 9 0 10 -5 3 -18 -6 -10 -6 -24 0 -34 6 -10 4 -20 -5
-27 -8 -7 -13 -23 -11 -37 1 -13 -2 -27 -6 -30 -5 -3 -9 -10 -9 -15 0 -6 5 -7
11 -3 6 3 3 -5 -6 -20 -14 -20 -14 -26 -4 -26 9 0 10 -3 4 -8 -5 -4 -10 -16
-9 -27 0 -11 -4 -26 -9 -32 -6 -9 -5 -13 3 -13 10 0 10 -4 -1 -16 -10 -13 -10
-17 0 -24 10 -5 10 -9 1 -12 -6 -2 -13 -28 -15 -58 -2 -30 -4 -55 -5 -55 -1 0
-3 -10 -6 -22 -2 -14 1 -23 9 -23 6 0 4 -5 -7 -11 -15 -9 -16 -13 -5 -20 12
-7 12 -9 0 -9 -11 0 -11 -3 -1 -15 7 -8 8 -15 2 -15 -5 0 -8 -13 -7 -30 1 -16
-2 -30 -7 -30 -7 0 -6 -5 1 -13 8 -10 7 -17 -2 -26 -9 -9 -9 -14 2 -20 9 -6 9
-10 2 -12 -6 -3 -13 -44 -15 -104 -3 -55 -5 -100 -6 -100 -1 0 -3 -10 -4 -22
-2 -13 2 -23 8 -23 6 0 4 -5 -4 -10 -8 -5 -11 -10 -7 -10 4 0 3 -9 -3 -19 -7
-14 -6 -21 3 -24 9 -4 8 -8 -3 -16 -12 -8 -12 -11 -1 -11 11 0 11 -3 1 -15 -9
-11 -9 -15 -1 -15 8 0 9 -6 3 -17 -4 -10 -7 -38 -6 -63 1 -25 -4 -48 -10 -52
-8 -6 -8 -8 0 -8 14 0 13 -68 0 -89 -7 -11 -6 -12 5 -6 12 8 12 6 0 -8 -9 -11
-10 -17 -2 -17 13 0 10 -22 -4 -32 -6 -5 -6 -8 2 -8 8 0 9 -9 3 -30 -5 -19 -5
-30 1 -30 6 0 5 -8 -1 -20 -8 -15 -8 -20 1 -20 7 0 5 -10 -6 -26 -9 -15 -12
-24 -7 -20 6 3 13 2 17 -4 3 -5 1 -10 -5 -10 -6 0 -8 -5 -5 -10 4 -6 1 -18 -6
-26 -10 -12 -9 -13 7 -7 16 6 17 4 7 -8 -10 -12 -8 -19 8 -33 12 -9 23 -15 26
-12 3 3 14 1 24 -5 14 -7 19 -6 19 3 0 10 2 10 9 -1 5 -8 11 -9 15 -3 4 7 17
7 36 2 20 -6 30 -5 34 3 3 8 5 8 5 1 1 -7 12 -9 27 -6 29 5 52 -17 31 -30 -9
-6 -9 -8 0 -8 9 0 10 -7 2 -27 -7 -20 -6 -28 3 -35 9 -5 9 -8 1 -8 -7 0 -10
-10 -7 -26 3 -14 1 -23 -4 -20 -5 3 -9 -1 -9 -9 0 -8 4 -12 9 -9 4 3 8 0 8 -5
0 -6 -3 -11 -7 -11 -5 0 -8 -55 -8 -123 0 -67 -3 -130 -7 -139 -5 -9 -5 -19 0
-22 4 -2 5 -36 2 -75 -3 -39 -2 -71 2 -71 3 0 3 -13 -2 -30 -6 -21 -5 -30 3
-30 8 0 8 -3 2 -8 -12 -8 -13 -42 -2 -59 4 -6 3 -14 -1 -17 -5 -3 -7 -18 -5
-33 5 -32 5 -33 0 -91 -2 -23 0 -48 4 -54 4 -7 3 -21 -3 -31 -6 -12 -6 -22 -1
-26 5 -3 10 -16 11 -28 3 -44 5 -53 14 -53 4 0 8 -7 8 -15 0 -9 9 -25 20 -37
11 -12 20 -27 20 -32 0 -6 14 -17 30 -24 17 -8 28 -17 26 -21 -3 -4 7 -8 21
-9 26 -2 67 -21 46 -22 -15 0 -45 -55 -35 -65 4 -3 1 -5 -7 -3 -7 2 -15 -5
-17 -14 -2 -10 -5 -24 -7 -30 -1 -7 -6 -19 -10 -25 -5 -7 -5 -13 -1 -13 4 0
-1 -7 -12 -15 -10 -8 -15 -15 -9 -15 5 0 -1 -7 -13 -16 -12 -8 -20 -20 -17
-25 4 -5 1 -9 -6 -9 -7 0 -9 -3 -6 -7 4 -3 -1 -15 -10 -26 -10 -11 -12 -17 -6
-13 9 5 11 2 7 -8 -3 -9 -10 -16 -14 -16 -4 0 -7 -13 -6 -29 1 -17 -2 -28 -6
-25 -9 6 -10 2 -12 -40 -1 -16 -7 -31 -14 -34 -7 -2 -10 -8 -7 -13 3 -5 1 -18
-5 -29 -8 -15 -8 -20 2 -20 10 0 10 -2 1 -8 -13 -8 -19 -35 -28 -115 -2 -22
-10 -46 -17 -55 -11 -13 -11 -14 1 -7 11 6 13 4 7 -11 -12 -30 -14 -64 -5 -70
5 -3 9 -11 9 -17 0 -7 -4 -6 -11 3 -7 11 -9 5 -6 -23 3 -21 0 -37 -5 -37 -6 0
-5 -6 2 -15 9 -11 9 -15 1 -15 -7 0 -9 -5 -6 -10 3 -6 7 -28 7 -50 0 -27 4
-38 12 -33 6 4 5 -1 -2 -10 -8 -9 -10 -22 -6 -29 11 -17 14 -39 5 -34 -8 6 -6
-33 4 -56 4 -9 4 -22 0 -28 -3 -5 -1 -10 4 -10 7 0 9 -16 7 -40 -2 -22 0 -40
6 -40 5 0 8 -8 6 -17 -1 -10 1 -24 6 -32 7 -10 5 -12 -3 -6 -7 4 -5 -5 5 -21
14 -21 15 -26 4 -19 -13 8 -13 7 -1 -8 7 -9 10 -17 6 -17 -4 0 -2 -7 5 -15 9
-11 10 -15 1 -15 -8 0 -6 -6 4 -16 11 -11 13 -20 6 -27 -6 -6 -4 -18 6 -34 9
-13 13 -26 9 -30 -3 -3 -1 -11 4 -18 5 -6 12 -22 14 -36 3 -13 5 -26 6 -29 2
-3 2 -8 1 -12 0 -5 4 -8 10 -8 5 0 7 -5 4 -10 -4 -6 -1 -18 7 -27 11 -14 11
-16 -2 -8 -12 6 -13 5 -2 -6 6 -7 12 -21 12 -31 0 -10 4 -18 9 -18 6 0 8 -9 6
-20 -2 -11 1 -20 6 -20 6 0 8 -4 5 -8 -3 -5 1 -20 8 -33 7 -14 12 -33 10 -42
-1 -9 2 -15 7 -11 5 3 10 -4 10 -15 2 -30 3 -32 22 -68 20 -38 21 -46 5 -38
-7 4 -5 0 4 -8 10 -8 15 -17 11 -20 -3 -4 -1 -7 5 -7 6 0 9 -7 6 -15 -4 -8 -1
-15 4 -15 6 0 9 -9 7 -20 -2 -11 0 -18 6 -15 5 4 9 -3 9 -14 0 -12 6 -21 13
-21 8 0 7 -4 -3 -10 -8 -5 -10 -10 -5 -10 12 0 35 -47 35 -70 0 -9 6 -22 13
-28 6 -7 12 -16 12 -20 2 -26 28 -81 37 -76 6 4 8 -1 3 -15 -4 -12 -2 -21 4
-21 6 0 11 -9 11 -20 0 -11 4 -20 10 -20 5 0 9 -3 9 -7 -4 -25 2 -53 11 -48 6
3 10 -3 10 -14 0 -11 5 -23 10 -26 6 -4 8 -10 5 -15 -3 -5 2 -16 11 -24 8 -9
12 -16 8 -16 -4 0 1 -10 12 -22 13 -14 14 -19 4 -14 -12 6 -11 4 1 -6 9 -7 15
-21 13 -30 -1 -10 1 -18 4 -18 4 0 13 -9 20 -21 11 -17 11 -20 0 -13 -7 4 -5
-2 5 -14 11 -12 16 -26 11 -33 -4 -8 -3 -10 4 -5 8 5 12 0 12 -13 0 -12 5 -21
10 -21 6 0 10 -9 10 -19 0 -11 4 -23 10 -26 5 -3 10 -15 10 -26 0 -11 4 -17
10 -14 6 3 10 -4 10 -18 0 -13 8 -32 18 -43 9 -10 19 -28 20 -39 2 -11 8 -22
13 -23 5 -2 7 -7 4 -12 -3 -5 2 -15 10 -24 9 -8 15 -17 15 -18 -3 -8 20 -57
29 -63 6 -3 11 -15 11 -26 0 -10 4 -19 10 -19 5 0 7 -7 4 -15 -4 -8 -2 -15 3
-15 5 0 17 -19 28 -42 10 -24 23 -46 29 -50 7 -5 7 -8 -2 -8 -10 0 -10 -3 0
-14 7 -8 16 -12 20 -10 4 3 5 -5 3 -16 -2 -11 0 -20 5 -20 5 0 12 -11 16 -25
3 -14 10 -25 16 -25 5 0 7 -4 3 -9 -3 -5 2 -16 10 -24 8 -9 15 -23 15 -31 0
-9 5 -16 11 -16 6 0 9 -6 6 -12 -2 -7 5 -21 15 -30 11 -9 19 -20 19 -25 -2
-21 12 -43 22 -37 7 4 9 4 5 0 -9 -10 11 -66 24 -66 5 0 6 -4 3 -10 -3 -5 -2
-10 2 -10 9 0 37 -59 34 -72 0 -5 3 -8 8 -8 5 0 14 -14 21 -30 7 -17 16 -30
21 -30 5 0 8 -3 7 -7 -2 -12 14 -47 26 -55 7 -5 6 -8 -4 -8 -10 0 -7 -5 8 -16
12 -8 20 -20 17 -25 -4 -5 -1 -9 6 -9 7 0 10 -3 7 -6 -6 -5 26 -60 52 -91 8
-9 7 -13 -2 -13 -9 0 -10 -3 -2 -8 14 -9 39 -55 36 -66 -2 -5 4 -6 12 -3 10 4
13 1 9 -10 -3 -8 -2 -18 3 -22 15 -9 54 -80 54 -97 0 -8 5 -14 10 -14 6 0 10
-7 10 -15 0 -8 5 -15 11 -15 5 0 8 -4 5 -9 -3 -5 1 -12 10 -15 9 -3 14 -13 11
-20 -3 -8 -2 -16 2 -18 15 -6 61 -99 55 -110 -4 -7 -2 -8 4 -4 12 7 35 -27 25
-38 -3 -3 -1 -6 5 -6 7 0 12 -7 12 -15 0 -8 4 -15 9 -15 5 0 13 -10 17 -22 4
-13 15 -34 25 -47 10 -13 16 -27 13 -32 -3 -5 0 -9 6 -9 6 0 8 -4 5 -10 -3 -5
-2 -10 4 -10 6 0 18 -17 28 -37 9 -21 22 -41 27 -45 7 -5 7 -8 1 -8 -5 0 -4
-4 4 -9 8 -5 16 -17 17 -27 2 -9 7 -20 12 -23 8 -6 17 -25 21 -46 2 -5 9 -14
17 -18 8 -4 14 -15 14 -22 0 -8 5 -15 11 -15 5 0 8 -4 5 -8 -3 -5 2 -18 12
-28 9 -11 18 -26 20 -34 2 -8 8 -18 14 -21 6 -4 8 -11 4 -17 -3 -5 0 -12 7
-15 6 -3 23 -27 37 -53 13 -27 27 -51 31 -54 3 -3 14 -22 24 -42 9 -21 22 -38
27 -38 5 0 6 -4 3 -10 -3 -5 -1 -10 5 -10 6 0 8 -4 5 -10 -3 -5 -2 -10 3 -10
10 0 37 -50 34 -63 -1 -4 5 -10 13 -13 8 -3 12 -10 9 -15 -3 -5 0 -9 5 -9 6 0
11 -9 11 -20 0 -11 7 -20 16 -20 8 0 12 -5 9 -11 -4 -6 1 -17 11 -24 11 -8 15
-15 10 -15 -5 0 -1 -9 9 -20 10 -11 15 -20 11 -20 -4 0 2 -10 14 -22 11 -12
20 -28 20 -35 0 -7 5 -13 11 -13 5 0 7 -5 4 -10 -3 -6 1 -13 10 -16 9 -4 14
-13 11 -20 -3 -8 1 -14 11 -14 9 0 13 -3 10 -6 -7 -7 23 -64 34 -64 3 0 12
-18 19 -40 7 -21 17 -37 21 -34 5 3 9 -1 9 -9 0 -7 8 -22 18 -33 11 -11 18
-28 16 -38 -1 -10 0 -15 3 -12 6 6 63 -79 63 -94 0 -6 4 -10 9 -10 5 0 15 -16
22 -34 7 -19 16 -33 21 -30 4 3 8 -4 8 -15 0 -12 5 -21 10 -21 6 0 10 -7 10
-15 0 -9 7 -18 15 -21 8 -4 13 -10 10 -14 -3 -5 1 -15 9 -23 8 -8 12 -17 9
-21 -4 -3 -1 -6 5 -6 7 0 12 -7 12 -15 0 -8 3 -15 8 -15 4 0 13 -14 20 -30 8
-17 18 -27 25 -23 6 4 8 0 4 -9 -3 -9 3 -25 13 -36 10 -11 16 -23 13 -26 -4
-3 -1 -6 5 -6 7 0 12 -7 12 -15 0 -7 8 -19 18 -24 9 -6 14 -11 10 -11 -4 0 4
-16 17 -36 14 -20 22 -41 18 -48 -3 -6 -3 -8 2 -4 9 8 50 -40 42 -49 -3 -3 5
-16 19 -30 13 -13 22 -29 19 -34 -4 -5 -2 -9 4 -9 5 0 12 -9 16 -19 3 -10 18
-31 33 -47 15 -15 21 -24 14 -20 -11 7 -11 4 0 -13 7 -12 16 -21 19 -21 4 0
12 -13 19 -30 7 -16 16 -30 21 -30 5 0 9 -8 9 -17 0 -10 12 -29 25 -42 14 -12
22 -27 19 -32 -3 -5 0 -9 6 -9 6 0 15 -10 20 -22 14 -33 32 -60 52 -79 10 -9
18 -24 18 -33 0 -9 5 -16 10 -16 6 0 10 -7 10 -15 0 -8 7 -15 16 -15 9 0 12
-5 8 -12 -4 -6 1 -17 11 -25 11 -7 15 -13 10 -13 -4 0 2 -8 13 -19 12 -10 19
-21 15 -24 -3 -4 2 -9 11 -13 9 -3 16 -12 16 -20 0 -8 5 -14 11 -14 5 0 7 -5
4 -10 -3 -6 1 -13 9 -16 9 -3 16 -12 16 -20 0 -8 5 -14 11 -14 5 0 8 -4 5 -9
-3 -5 1 -11 9 -15 8 -3 15 -12 15 -21 0 -8 4 -15 9 -15 5 0 14 -13 21 -30 7
-16 16 -27 21 -24 5 3 9 -2 9 -10 0 -8 7 -22 16 -30 8 -9 13 -16 10 -16 -3 0
5 -11 17 -24 36 -40 48 -56 41 -56 -4 0 3 -8 14 -19 12 -10 19 -21 15 -25 -3
-3 0 -6 7 -6 7 0 11 -3 7 -6 -3 -3 5 -17 19 -31 13 -13 22 -29 19 -34 -4 -5
-2 -9 4 -9 6 0 21 -16 34 -35 13 -19 27 -32 32 -27 4 4 5 -1 2 -10 -4 -12 -1
-18 9 -18 8 0 13 -4 10 -8 -3 -5 6 -20 20 -35 13 -14 24 -29 24 -31 0 -6 32
-45 58 -72 7 -8 11 -14 8 -14 -3 0 3 -9 14 -20 11 -11 20 -25 20 -31 0 -5 5
-7 10 -4 6 3 10 -1 10 -9 0 -9 5 -16 10 -16 6 0 10 -4 10 -10 0 -11 25 -44 52
-68 9 -9 15 -19 12 -23 -2 -4 5 -10 16 -14 11 -4 18 -11 15 -16 -4 -5 1 -12 9
-15 9 -3 13 -10 10 -15 -3 -5 2 -9 10 -9 8 0 18 -9 21 -20 3 -11 11 -20 17
-20 6 0 9 -3 6 -6 -3 -3 12 -23 33 -44 21 -21 39 -43 39 -49 0 -5 9 -12 20
-16 11 -3 19 -10 17 -14 -4 -13 248 -271 264 -271 5 0 9 -7 9 -16 0 -10 6 -14
14 -11 10 4 13 1 10 -8 -6 -14 29 -39 40 -28 3 3 6 1 6 -5 0 -7 9 -21 20 -32
11 -11 20 -17 20 -13 0 4 8 -2 19 -13 28 -28 60 -54 69 -54 4 0 14 -9 22 -20
8 -11 20 -20 28 -20 7 0 15 -7 18 -15 4 -8 10 -12 15 -9 5 3 9 0 9 -5 0 -6 7
-11 15 -11 8 0 15 -3 15 -8 0 -7 10 -13 66 -42 16 -8 32 -19 36 -24 3 -5 15
-11 24 -12 10 -2 24 -10 30 -19 9 -12 13 -13 17 -3 4 10 6 10 6 1 1 -7 8 -13
16 -13 8 0 15 -4 15 -9 0 -5 7 -12 16 -15 9 -3 12 -2 9 4 -4 6 8 2 26 -9 18
-11 36 -18 41 -15 4 3 8 0 8 -5 0 -6 9 -11 20 -11 11 0 20 -4 20 -8 0 -4 10
-8 22 -9 11 -1 24 -7 28 -14 6 -8 9 -8 15 1 4 7 10 8 14 4 3 -5 17 -15 30 -22
19 -11 22 -11 15 0 -6 10 -4 10 9 -1 9 -7 17 -10 17 -5 0 5 5 2 10 -6 9 -13
10 -13 10 0 0 13 1 13 10 0 9 -13 10 -13 10 0 0 13 1 13 10 0 6 -9 26 -15 56
-16 27 -1 50 -7 55 -15 7 -12 9 -12 9 0 0 11 3 11 17 0 15 -12 16 -12 8 1 -8
13 -7 13 8 1 14 -11 17 -11 17 0 0 9 3 10 8 4 6 -9 41 -12 67 -5 6 1 15 1 20
0 40 -8 45 -8 39 2 -5 7 0 9 14 6 12 -4 22 -3 22 1 0 4 12 7 28 8 47 1 53 3
47 12 -3 6 6 8 20 5 15 -2 25 0 25 7 0 6 7 9 15 6 8 -4 17 -2 21 4 3 5 15 7
26 3 16 -5 20 -3 15 9 -4 11 -2 14 9 10 8 -3 24 3 34 12 11 10 20 15 20 11 0
-4 10 -1 23 6 12 7 25 11 30 10 4 -1 7 3 7 8 0 6 7 10 15 10 8 0 15 4 15 10 0
5 11 12 25 16 14 3 25 10 25 15 0 5 7 9 15 9 8 0 15 5 15 10 0 6 6 10 14 10 8
0 17 7 20 16 4 9 9 14 13 10 3 -3 12 3 20 14 8 11 21 20 29 20 8 0 13 3 11 8
-2 4 14 24 35 44 21 20 38 34 38 30 0 -3 6 3 14 13 8 11 12 24 9 30 -4 5 -3 7
2 3 8 -8 35 15 35 30 0 6 7 13 16 16 9 4 14 9 11 12 -2 3 6 17 19 31 13 14 21
29 19 33 -3 4 2 10 10 14 8 3 15 15 15 26 0 11 4 20 9 20 8 0 22 32 25 55 1 6
8 16 16 23 8 8 9 11 2 7 -7 -4 -4 8 8 29 11 20 17 36 13 36 -4 0 -2 5 4 11 6
6 9 18 6 25 -3 8 -1 14 4 14 5 0 10 14 11 31 1 17 7 40 13 51 9 16 8 19 -3 12
-11 -6 -11 -5 1 9 7 9 11 24 7 32 -3 8 -1 15 4 15 5 0 7 6 4 14 -3 8 -1 17 5
20 6 4 8 13 4 21 -3 8 0 15 7 15 6 0 8 5 5 11 -8 12 16 100 25 94 3 -2 7 8 8
22 1 13 12 39 24 56 13 18 16 28 7 23 -7 -4 -4 1 9 12 12 11 22 25 22 31 0 6
7 11 15 11 8 0 15 -5 15 -11 0 -5 5 -7 10 -4 6 3 13 -1 16 -9 3 -9 15 -16 25
-16 10 0 19 -5 19 -12 0 -6 3 -8 7 -5 3 4 17 0 29 -8 15 -10 25 -11 29 -4 5 6
12 6 22 -3 9 -7 30 -13 47 -14 17 -1 39 -5 48 -9 9 -4 21 -4 27 -1 5 3 12 0
15 -6 5 -10 7 -10 12 -1 3 7 11 10 18 7 25 -9 126 -9 126 1 0 6 5 3 10 -5 7
-11 10 -11 10 -2 0 7 5 10 10 7 6 -4 18 -1 27 7 14 11 16 11 8 -1 -6 -11 -4
-13 11 -6 10 4 36 8 57 9 21 1 43 9 48 17 7 12 9 12 9 -1 0 -10 3 -11 11 -3 6
6 18 9 25 6 8 -3 14 0 14 7 0 6 5 8 10 5 6 -4 16 -2 23 3 7 5 22 8 34 7 12 -1
20 2 17 7 -5 7 4 10 22 7 3 0 17 7 31 16 14 9 22 12 18 5 -5 -8 -1 -8 13 1 12
7 19 16 17 19 -2 4 9 6 25 5 16 -1 27 2 24 7 -3 4 2 8 10 8 9 0 16 5 16 11 0
5 5 7 10 4 6 -3 10 -3 10 2 0 4 18 17 40 27 22 11 40 23 40 28 0 5 4 7 9 3 5
-3 17 5 25 17 9 12 16 19 16 14 0 -5 9 1 20 14 11 13 20 19 20 15 0 -5 9 1 20
13 12 12 25 22 30 22 6 0 10 7 10 15 0 9 6 12 17 8 10 -4 14 -2 10 4 -8 12 17
36 26 26 4 -3 7 4 7 16 0 12 4 20 9 17 5 -3 21 12 36 34 15 22 32 37 38 33 6
-3 7 -1 3 5 -4 7 -2 12 4 12 6 0 9 4 5 9 -3 6 3 14 12 20 10 6 14 11 10 11 -4
0 1 10 13 22 11 12 20 28 20 35 0 7 5 13 10 13 6 0 10 6 10 13 0 7 8 22 18 33
9 10 19 28 20 39 2 11 9 23 15 27 6 4 8 10 5 14 -4 3 -1 13 7 21 8 8 15 25 15
38 0 13 4 25 9 27 6 2 11 14 13 28 2 14 7 31 11 37 5 7 5 17 2 23 -3 5 -1 10
5 10 7 0 10 6 7 14 -3 7 0 19 6 25 8 8 7 11 -4 11 -10 0 -11 2 -2 8 7 5 14 27
15 50 1 23 5 39 11 35 5 -3 4 5 -3 17 -8 15 -8 20 -1 16 6 -4 11 -3 11 3 0 5
-5 13 -10 16 -7 4 -7 11 -2 18 14 18 12 117 -2 117 -7 0 -7 3 -1 8 16 11 17
34 3 43 -10 7 -10 9 1 9 11 0 11 3 1 15 -10 12 -10 15 1 15 9 0 10 3 4 8 -12
8 -17 26 -18 70 -1 17 -5 32 -9 32 -4 0 -8 18 -8 39 0 22 -4 41 -10 43 -5 1
-11 15 -12 31 -1 15 -7 27 -12 27 -5 0 -6 3 -3 7 4 3 0 17 -9 31 -9 13 -12 22
-6 18 6 -3 5 4 -1 19 -7 14 -15 25 -19 25 -5 0 -8 5 -8 11 0 5 5 7 11 3 6 -3
3 6 -7 21 -10 16 -19 35 -20 43 -2 8 -7 18 -11 21 -5 3 -15 25 -23 48 -7 24
-17 43 -22 43 -4 0 -7 3 -7 7 3 20 -2 34 -10 28 -6 -3 -8 4 -6 15 2 11 -1 20
-6 20 -6 0 -7 5 -4 10 3 6 1 10 -4 10 -6 0 -11 9 -11 20 0 11 -4 20 -10 20 -5
0 -10 7 -10 15 0 8 -8 23 -17 33 -10 10 -19 29 -21 42 -1 13 -6 27 -10 30 -12
9 -54 90 -46 90 4 0 0 6 -10 13 -9 7 -18 22 -19 34 0 13 -7 25 -15 28 -8 3
-12 11 -9 19 3 7 -3 19 -13 26 -11 8 -17 17 -14 21 2 4 -3 15 -12 23 -8 9 -13
16 -9 16 4 0 -1 7 -9 16 -9 8 -14 19 -11 24 3 5 1 11 -5 15 -6 4 -7 11 -4 17
4 6 2 8 -4 4 -10 -6 -25 21 -19 35 1 3 -6 13 -16 23 -9 10 -15 22 -12 27 4 5
2 9 -3 9 -13 0 -53 76 -45 84 4 3 1 6 -5 6 -7 0 -12 7 -12 15 0 8 -3 15 -8 15
-4 0 -13 15 -21 32 -8 18 -18 36 -23 39 -5 3 -10 15 -11 27 0 11 -5 18 -9 16
-4 -3 -8 2 -8 10 0 9 -5 16 -11 16 -5 0 -7 5 -4 10 3 6 1 10 -5 10 -7 0 -10 7
-6 15 3 8 1 15 -4 15 -6 0 -10 5 -10 11 0 6 -7 17 -15 26 -9 8 -19 28 -22 44
-3 16 -9 29 -14 29 -5 0 -17 17 -27 38 -26 53 -62 115 -73 127 -5 5 -9 17 -9
28 0 10 -4 15 -10 12 -5 -3 -10 3 -10 14 0 12 -4 21 -10 21 -5 0 -10 7 -10 15
0 8 -4 15 -10 15 -5 0 -10 8 -10 18 -1 20 -24 54 -33 47 -4 -3 -5 -2 -2 1 2 4
-1 16 -7 28 -7 11 -11 24 -10 29 1 4 -3 7 -9 7 -5 0 -7 5 -4 10 3 6 2 10 -3
10 -5 0 -17 18 -27 40 -10 22 -22 40 -27 40 -5 0 -6 5 -3 10 3 6 1 10 -6 10
-7 0 -10 3 -6 6 3 4 -1 13 -9 21 -8 8 -12 19 -9 24 4 5 2 9 -2 9 -5 0 -17 16
-27 35 -10 19 -23 32 -29 28 -6 -3 -7 -1 -3 6 4 6 2 18 -4 26 -7 8 -9 15 -4
15 5 0 4 4 -2 8 -6 4 -21 26 -33 49 -11 23 -25 44 -31 48 -5 3 -10 15 -10 26
0 10 -3 19 -8 19 -4 0 -18 20 -31 45 -13 25 -28 45 -33 45 -5 0 -6 5 -3 11 4
6 -1 17 -11 25 -11 9 -13 13 -4 9 8 -4 4 3 -9 14 -13 12 -20 21 -16 21 4 0 2
7 -5 15 -6 8 -9 19 -5 25 3 5 -1 10 -10 10 -9 0 -13 5 -10 10 3 6 1 10 -4 10
-6 0 -11 7 -11 15 0 8 -5 15 -11 15 -5 0 -8 4 -5 9 3 5 -1 14 -9 21 -8 7 -15
19 -15 26 0 8 -5 14 -11 14 -5 0 -7 5 -4 10 3 5 1 10 -5 10 -6 0 -8 5 -5 10 3
6 2 10 -3 10 -5 0 -15 14 -22 30 -7 17 -17 30 -22 30 -5 0 -7 4 -4 9 3 5 -1
14 -9 21 -8 7 -15 18 -15 25 0 7 -7 18 -15 25 -8 7 -12 16 -9 21 3 5 0 9 -5 9
-6 0 -11 9 -11 21 0 11 -4 17 -10 14 -6 -3 -10 3 -10 13 0 11 -7 25 -15 32 -9
7 -13 15 -10 18 3 3 -4 11 -15 19 -11 8 -20 23 -20 34 0 10 -5 19 -11 19 -5 0
-7 5 -4 10 3 6 -1 13 -9 16 -9 3 -14 9 -11 14 2 4 -3 16 -13 26 -9 11 -18 26
-20 34 -2 8 -7 17 -11 20 -4 3 -16 24 -28 47 -11 23 -23 40 -27 36 -3 -3 -6 3
-6 15 0 12 -4 22 -10 22 -5 0 -10 9 -10 21 0 13 -4 18 -12 13 -8 -5 -9 -2 -5
9 3 10 2 17 -3 17 -6 0 -18 17 -28 38 -9 20 -23 43 -29 50 -7 7 -16 24 -19 38
-3 13 -10 24 -15 24 -5 0 -9 7 -9 15 0 8 -4 15 -10 15 -5 0 -10 7 -10 15 0 8
-4 15 -10 15 -5 0 -10 9 -10 20 0 11 -5 20 -11 20 -6 0 -8 7 -5 16 3 8 2 12
-3 9 -5 -3 -13 5 -17 17 -3 12 -13 28 -20 36 -8 7 -12 17 -9 22 3 4 -2 10 -10
14 -8 3 -15 10 -15 16 0 6 -11 28 -24 49 -14 21 -22 42 -19 45 4 3 -1 6 -11 6
-9 0 -14 5 -11 10 3 6 1 10 -6 10 -7 0 -9 3 -6 7 4 3 -1 15 -10 26 -10 10 -17
21 -16 23 4 7 -32 64 -40 64 -5 0 -5 5 -2 10 3 6 1 10 -5 10 -7 0 -10 7 -6 15
3 8 2 15 -3 15 -4 0 -16 16 -27 35 -10 19 -22 35 -27 35 -4 0 -5 5 -2 10 3 5
1 10 -6 10 -7 0 -10 3 -6 6 3 4 -1 13 -9 21 -8 8 -12 19 -9 24 4 5 1 9 -5 9
-6 0 -8 5 -5 10 3 6 -1 10 -10 10 -11 0 -15 5 -11 15 3 8 2 15 -3 15 -9 0 -57
91 -53 102 1 4 -4 7 -10 6 -7 -2 -12 3 -10 10 1 6 -2 12 -8 12 -5 0 -10 7 -10
16 0 8 -5 12 -10 9 -6 -4 -10 -3 -9 2 4 24 -2 53 -11 48 -5 -3 -10 -1 -10 5 0
6 -7 18 -15 27 -8 8 -13 19 -10 24 4 5 1 9 -4 9 -6 0 -11 7 -11 15 0 7 -8 19
-17 24 -10 6 -14 11 -9 11 5 0 1 9 -9 20 -10 11 -15 20 -11 20 4 0 0 7 -8 16
-9 8 -14 19 -11 24 3 4 -2 10 -10 14 -8 3 -15 12 -15 21 0 8 -5 15 -11 15 -6
0 -9 6 -6 13 2 6 -4 19 -13 27 -9 8 -23 30 -31 48 -7 17 -18 32 -22 32 -5 0
-5 5 -2 10 3 6 1 10 -5 10 -6 0 -9 4 -6 9 3 5 -1 12 -10 15 -8 3 -12 10 -9 16
3 5 1 10 -4 10 -6 0 -11 7 -11 15 0 8 -5 15 -11 15 -5 0 -7 5 -4 10 3 6 -1 13
-10 16 -9 4 -14 13 -11 20 3 8 1 14 -4 14 -5 0 -17 16 -26 35 -9 19 -20 35
-25 35 -5 0 -6 7 -3 15 4 9 0 15 -10 15 -9 0 -16 3 -15 8 2 15 -14 52 -23 52
-5 0 -6 5 -3 10 3 6 1 10 -4 10 -6 0 -11 5 -11 12 0 6 -10 23 -22 36 -13 14
-16 22 -8 18 9 -5 8 -2 -2 7 -10 8 -15 17 -11 20 3 4 1 7 -5 7 -7 0 -12 6 -12
13 0 7 -9 23 -19 34 -11 12 -17 24 -14 27 4 3 1 6 -6 6 -7 0 -9 5 -6 10 3 6 1
10 -4 10 -6 0 -11 7 -11 15 0 8 -3 15 -8 15 -4 0 -14 15 -21 33 -8 17 -21 38
-28 45 -7 8 -11 17 -9 21 3 4 -4 13 -14 21 -10 8 -17 17 -14 22 3 4 0 8 -6 8
-6 0 -8 5 -5 10 3 6 1 10 -4 10 -6 0 -11 7 -11 15 0 8 -4 15 -10 15 -5 0 -10
8 -10 18 0 10 -9 25 -20 35 -11 9 -20 24 -20 32 0 8 -4 15 -10 15 -5 0 -10 7
-10 15 0 8 -5 15 -11 15 -5 0 -7 5 -4 10 3 6 1 10 -6 10 -7 0 -9 3 -6 6 4 4
-3 15 -15 25 -12 11 -16 19 -8 19 8 0 6 6 -6 18 -11 9 -30 38 -43 64 -13 27
-28 48 -33 48 -4 0 -8 9 -8 21 0 13 -4 18 -12 13 -8 -5 -9 -2 -5 9 4 11 1 17
-8 17 -8 0 -15 9 -15 20 0 11 -4 20 -10 20 -5 0 -10 7 -10 15 0 8 -4 15 -10
15 -5 0 -10 9 -10 20 0 11 -4 20 -10 20 -5 0 -10 7 -10 16 0 9 -5 12 -12 8 -8
-5 -9 -2 -5 9 3 10 2 17 -3 17 -5 0 -21 23 -36 50 -15 28 -31 50 -36 50 -4 0
-8 9 -8 20 0 11 -4 20 -9 20 -5 0 -14 13 -21 30 -7 16 -17 27 -23 23 -5 -3 -7
-1 -3 5 3 6 2 13 -4 17 -6 4 -8 10 -5 15 3 4 -2 11 -11 14 -9 4 -14 9 -11 12
3 4 -2 15 -12 25 -10 11 -24 32 -32 47 -8 15 -20 33 -27 40 -7 8 -10 18 -7 23
4 5 -1 9 -10 9 -9 0 -15 6 -12 13 2 6 -6 21 -18 33 -13 11 -26 31 -30 42 -3
12 -12 22 -18 22 -7 0 -6 4 3 10 13 8 12 10 -2 10 -10 0 -18 4 -18 10 0 5 -18
35 -40 66 -22 31 -37 61 -34 65 3 5 -3 9 -12 9 -10 0 -14 3 -11 6 4 4 -1 14
-11 23 -9 9 -18 23 -20 31 -2 8 -10 19 -18 23 -8 4 -14 14 -14 22 0 8 -9 20
-20 28 -11 8 -17 17 -13 20 3 4 1 7 -5 7 -7 0 -12 6 -12 14 0 8 -7 16 -15 20
-8 3 -14 10 -13 15 2 5 -6 17 -17 26 -11 9 -13 14 -5 10 8 -3 5 2 -7 11 -13 9
-23 20 -23 25 0 9 -28 44 -62 81 -10 10 -18 20 -18 23 0 3 -29 35 -65 70 -36
36 -65 69 -65 75 0 5 -7 7 -15 4 -9 -4 -15 0 -15 10 0 9 -6 16 -14 16 -8 0
-22 10 -30 22 -9 12 -16 18 -16 13 0 -6 -5 -2 -11 8 -6 9 -14 15 -19 12 -4 -3
-10 2 -14 10 -3 8 -12 15 -21 15 -8 0 -15 4 -15 9 0 5 -18 17 -40 27 -22 10
-40 22 -40 27 0 4 -4 5 -10 2 -5 -3 -10 -1 -10 5 0 6 -4 9 -9 6 -4 -3 -17 1
-27 9 -10 8 -27 15 -36 15 -10 0 -18 5 -18 10 0 6 -11 10 -25 10 -14 0 -25 5
-25 11 0 5 -4 7 -10 4 -6 -3 -10 -2 -10 4 0 5 -12 8 -26 5 -18 -3 -23 -1 -18
7 5 9 1 10 -14 7 -12 -4 -22 -2 -22 2 0 5 -9 7 -21 5 -15 -3 -19 0 -15 10 4
11 0 12 -19 5 -14 -5 -25 -6 -25 -2 0 5 -14 7 -30 6 -17 -1 -30 3 -30 9 0 7
-5 5 -10 -3 -5 -8 -10 -10 -10 -4 0 11 -25 14 -173 17 -48 1 -87 -1 -87 -4 0
-4 -14 -5 -31 -3 -22 3 -28 0 -23 -9 5 -8 2 -7 -9 2 -13 10 -17 10 -17 1 0 -9
-4 -9 -17 1 -14 12 -16 12 -8 0 6 -11 3 -13 -13 -9 -12 4 -22 2 -22 -4 0 -6
-6 -8 -14 -5 -7 3 -19 0 -26 -6 -10 -9 -11 -9 -5 1 5 10 0 10 -23 -2 -16 -8
-32 -13 -35 -10 -3 4 -16 -1 -28 -10 -18 -12 -26 -13 -38 -3 -10 8 -13 9 -8 0
5 -7 -6 -16 -30 -24 -21 -7 -40 -12 -43 -12 -3 0 -11 -7 -18 -16 -9 -10 -11
-11 -6 -2 4 9 -6 6 -24 -8 -18 -12 -32 -19 -32 -15 0 4 -7 -1 -16 -12 -8 -10
-12 -12 -8 -4 4 8 -4 5 -18 -8 -13 -12 -27 -19 -31 -16 -4 4 -9 -1 -13 -10 -3
-9 -13 -16 -21 -16 -9 0 -24 -10 -34 -22 -11 -11 -19 -17 -19 -13 0 4 -8 -2
-19 -13 -10 -12 -22 -22 -27 -22 -5 0 -18 -11 -28 -25 -10 -13 -22 -22 -27
-19 -5 3 -9 0 -9 -7 0 -13 -38 -49 -52 -49 -4 0 -8 -5 -8 -10 0 -6 -10 -22
-22 -35 -33 -33 -58 -68 -58 -78 0 -4 -4 -6 -9 -3 -5 3 -12 -5 -15 -19 -4 -14
-11 -25 -16 -25 -6 0 -10 -7 -10 -15 0 -8 -8 -15 -17 -15 -15 0 -16 -2 -3 -10
11 -7 11 -10 2 -10 -7 0 -10 -5 -7 -10 3 -6 -1 -13 -9 -16 -9 -3 -14 -10 -11
-14 3 -5 0 -14 -7 -22 -13 -14 -20 -33 -21 -55 0 -7 -5 -13 -10 -13 -5 0 -6
-7 -3 -16 4 -10 2 -13 -6 -8 -7 5 -9 2 -5 -9 3 -8 0 -20 -7 -26 -7 -6 -11 -24
-8 -42 3 -18 1 -29 -5 -26 -5 3 -9 -3 -9 -14 0 -10 3 -19 6 -19 3 0 5 -23 4
-50 -2 -37 0 -48 9 -43 7 4 6 0 -2 -10 -9 -12 -10 -17 -2 -17 7 0 10 -4 7 -9
-4 -5 0 -12 6 -14 10 -4 10 -6 0 -6 -10 -1 -10 -6 -1 -22 16 -31 28 -77 22
-83 -4 -3 -12 -1 -20 5 -10 9 -13 8 -13 -1 0 -9 -3 -10 -13 -1 -10 8 -17 7
-27 -2 -10 -9 -11 -9 -6 1 5 8 0 12 -16 13 -13 0 -32 3 -43 5 -11 3 -28 6 -37
8 -10 1 -20 5 -24 8 -3 4 -12 4 -20 1 -8 -3 -14 0 -14 6 0 6 -9 11 -19 11 -11
0 -22 4 -26 10 -3 5 -12 7 -19 4 -8 -3 -17 0 -21 5 -3 6 -11 9 -16 6 -5 -4 -9
-1 -9 4 0 6 -12 11 -26 11 -14 0 -23 4 -20 9 3 4 -6 7 -19 5 -14 -1 -25 2 -25
6 0 5 -9 7 -20 5 -11 -2 -20 0 -20 6 0 5 -5 9 -11 9 -5 0 -7 -6 -3 -13 4 -6
-1 -5 -12 4 -10 9 -33 15 -51 14 -17 0 -29 3 -26 9 4 5 -3 7 -15 4 -12 -4 -22
-2 -22 2 0 5 -12 7 -26 4 -14 -3 -33 1 -42 8 -13 11 -14 11 -7 -2 8 -13 7 -13
-8 -1 -14 11 -17 11 -17 0 0 -10 -3 -10 -8 -3 -7 11 -79 13 -98 2 -5 -3 -19
-4 -32 -3 -12 1 -22 -2 -22 -6 0 -4 -8 -8 -17 -7 -31 0 -77 -13 -84 -24 -10
-16 -47 21 -42 43 3 11 10 19 17 19 6 0 4 5 -4 10 -8 5 -10 10 -5 10 6 0 9 17
7 38 -1 20 -3 42 -4 47 0 6 3 19 8 29 5 14 4 17 -5 11 -10 -5 -11 -3 -4 11 10
21 11 64 1 79 -4 6 -3 17 2 24 4 8 4 27 0 42 -5 16 -5 31 0 34 8 5 4 50 -6 66
-2 4 -1 10 3 12 5 3 8 66 8 141 0 75 2 136 5 136 3 0 4 19 4 42 -1 24 3 51 8
61 7 13 5 17 -9 17 -15 0 -15 2 3 15 13 10 14 14 5 15 -9 0 -10 4 -4 13 5 6 9
28 8 47 l-1 35 47 -2 c26 0 53 -4 58 -8 6 -3 11 -2 11 2 0 5 15 7 33 5 43 -5
70 20 65 60 -3 15 0 28 5 28 5 0 4 6 -2 14 -9 10 -9 16 -1 21 8 5 8 11 1 19
-6 7 -8 16 -4 19 10 11 10 72 -1 79 -7 5 -7 8 2 8 9 0 10 5 2 19 -7 14 -7 22
0 26 6 4 8 11 4 16 -3 5 0 17 8 26 7 9 8 14 2 10 -7 -4 -14 0 -18 8 -3 8 2 18
11 23 11 6 12 11 4 16 -6 4 -11 12 -11 17 0 6 4 8 8 5 5 -3 8 20 7 50 0 29 3
54 7 54 5 0 4 8 -1 19 -6 10 -7 21 -4 25 12 12 12 40 1 53 -8 10 -7 12 3 8 11
-4 14 6 13 47 0 29 4 59 9 66 6 7 5 17 -2 26 -7 9 -8 17 -2 20 5 3 8 17 6 31
-1 14 1 25 4 25 4 0 6 15 6 33 -1 17 2 37 7 44 5 7 5 14 -2 18 -6 3 -7 12 -3
18 13 20 12 41 0 49 -8 5 -7 8 4 8 11 0 15 10 14 45 -1 24 1 42 5 40 4 -2 6 8
4 23 -1 14 3 30 9 34 9 6 9 8 -1 8 -7 0 -11 4 -8 9 3 5 8 27 10 50 2 23 9 47
15 54 8 10 7 17 -1 25 -9 9 -9 12 2 12 13 0 13 2 0 10 -11 7 -11 10 -2 10 7 0
11 4 8 9 -4 5 -2 21 3 34 7 18 7 27 -2 31 -9 3 -9 5 0 5 7 1 10 8 6 18 -4 11
-3 14 5 9 8 -5 10 -2 6 9 -4 8 -1 22 5 29 8 9 8 16 2 20 -7 4 -7 15 -1 30 5
13 6 27 3 30 -4 3 0 6 8 6 11 0 11 2 -1 10 -11 7 -12 10 -2 10 8 0 12 6 9 13
-2 6 0 20 5 31 8 14 7 17 -4 10 -10 -6 -11 -5 -1 8 7 8 10 18 6 21 -3 4 -2 7
4 7 5 0 9 16 8 35 -1 19 2 35 7 35 5 0 6 9 3 20 -3 11 -2 20 3 20 5 0 10 6 9
13 -1 46 4 68 16 61 8 -5 8 -2 -2 9 -7 9 -9 17 -4 17 5 0 9 8 10 18 3 42 8 62
15 62 4 0 3 11 -2 25 -7 20 -6 27 4 31 8 3 13 16 11 30 -1 13 2 24 8 24 6 0 7
3 4 7 -4 3 -1 13 6 21 10 13 9 14 -3 7 -12 -7 -13 -6 -3 7 7 8 10 18 6 21 -3
4 -2 7 4 7 5 0 9 15 8 34 0 19 3 32 7 30 7 -5 13 26 9 49 0 4 3 7 9 7 12 0 9
22 -5 32 -6 4 -2 8 8 8 10 0 15 5 12 10 -4 6 -1 18 7 27 11 14 11 16 -2 8 -12
-7 -13 -6 -3 7 7 8 14 27 15 42 1 14 6 26 11 26 5 0 7 6 4 13 -2 6 0 21 6 32
6 11 12 30 13 43 2 13 9 31 16 40 11 13 11 14 0 8 -11 -6 -11 -4 -3 10 14 27
24 56 26 76 1 10 8 25 16 35 9 11 10 14 2 9 -7 -4 -13 -2 -13 3 0 6 5 11 12
11 6 0 8 3 5 7 -4 3 -2 12 3 18 6 7 11 24 12 39 1 14 7 26 12 26 5 0 7 3 4 6
-4 3 0 20 7 39 8 18 11 35 8 39 -4 3 -1 6 6 6 8 0 11 7 7 15 -3 8 -1 15 5 15
6 0 7 5 4 10 -3 6 0 10 7 10 10 0 9 3 -2 10 -12 8 -12 10 2 15 10 4 14 14 10
27 -3 14 -1 19 6 14 8 -5 10 -2 6 8 -4 10 -1 16 7 16 7 0 10 3 7 6 -4 3 0 20
7 39 8 18 11 35 8 39 -4 3 -1 6 6 6 7 0 10 4 7 8 -3 5 4 23 14 40 13 21 16 33
9 38 -8 4 -7 9 2 14 7 5 14 19 16 31 2 13 7 26 11 29 7 5 14 27 15 48 0 6 5
12 10 12 5 0 7 9 4 20 -3 11 -1 18 3 15 8 -5 25 49 18 61 -2 3 5 10 14 15 10
5 15 18 13 29 -2 11 1 20 6 20 6 0 7 5 4 10 -3 6 -1 10 4 10 6 0 11 9 11 20 0
11 4 20 10 20 5 0 7 7 4 15 -4 8 -1 15 6 15 7 0 10 7 6 15 -3 9 1 18 9 21 7 3
11 12 8 20 -3 8 0 14 7 14 6 0 9 4 6 8 -3 5 4 23 15 41 11 18 17 36 14 42 -4
5 -1 9 5 9 6 0 8 5 5 10 -3 6 -1 10 5 10 6 0 8 5 5 10 -3 6 -2 10 4 10 6 0 8
7 5 15 -4 8 1 17 9 21 9 3 13 12 10 20 -3 8 0 14 7 14 6 0 8 5 5 10 -3 6 -1
10 4 10 6 0 10 3 9 8 0 4 7 25 17 47 10 22 18 43 17 48 -1 4 3 7 9 7 5 0 8 4
5 9 -3 5 4 20 15 35 11 14 18 26 15 26 -4 0 11 33 33 74 22 41 37 77 33 80 -3
3 -1 6 5 6 6 0 14 7 17 16 4 10 2 13 -7 9 -6 -4 -4 0 5 8 10 8 15 17 11 20 -3
4 -1 7 6 7 7 0 10 4 6 9 -3 5 -1 12 5 16 6 4 8 10 5 15 -3 5 -1 11 5 15 6 4 8
11 5 16 -4 5 -2 9 3 9 5 0 8 10 8 23 -1 12 7 33 18 46 12 13 15 21 8 17 -7 -4
-3 9 8 29 11 20 18 40 15 46 -4 5 2 9 11 9 10 0 14 3 11 7 -4 3 0 17 8 30 9
13 12 23 8 23 -4 0 2 6 13 14 10 8 16 18 12 22 -4 4 0 13 10 21 9 8 11 11 3 7
-9 -5 -8 2 5 19 10 15 23 27 27 27 5 0 5 5 2 10 -3 6 -1 10 5 10 7 0 10 7 6
15 -3 9 0 15 8 15 8 0 16 9 19 20 10 39 27 61 40 53 4 -2 6 -1 5 4 -3 10 208
223 215 216 3 -2 8 5 12 16 3 12 13 21 21 21 8 0 12 5 9 10 -3 6 -3 10 2 10 4
0 30 20 56 45 27 25 53 45 58 45 6 0 7 5 4 10 -3 6 -2 10 3 10 8 0 45 31 105
88 11 9 23 16 28 14 5 -1 9 5 9 14 0 8 4 13 9 9 5 -3 12 4 16 15 4 11 10 18
15 15 4 -3 13 2 20 10 7 8 19 15 26 15 8 0 11 6 7 17 -4 9 -2 14 3 10 6 -3 23
6 39 21 16 15 32 27 35 27 6 0 26 16 61 48 10 9 19 15 19 12 0 -5 29 18 55 43
8 6 21 12 30 12 9 0 13 5 10 10 -3 6 1 10 9 10 9 0 16 4 16 9 0 5 16 16 35 25
19 9 35 21 35 27 0 6 4 8 9 5 4 -3 16 3 26 14 10 11 24 20 32 20 7 0 13 5 13
10 0 6 5 10 11 10 17 0 59 36 51 44 -3 4 1 4 11 0 11 -4 19 0 23 10 3 9 10 13
15 10 5 -3 9 0 9 7 0 7 3 10 6 6 4 -3 21 5 39 18 17 14 35 22 38 18 4 -3 7 1
7 10 0 11 7 15 20 12 11 -2 18 -1 16 4 -3 4 15 18 40 31 24 14 44 28 44 32 0
5 3 7 8 6 11 -2 46 14 54 26 3 5 15 11 25 12 9 2 19 8 21 13 2 6 9 11 17 11 7
0 18 7 25 15 7 9 19 14 26 11 7 -3 15 2 18 10 3 9 10 12 16 9 5 -3 10 -1 10 5
0 6 4 9 9 5 5 -3 16 3 23 13 7 11 15 19 18 19 16 0 50 16 46 22 -3 4 1 8 8 8
16 0 146 64 164 81 7 6 19 12 26 12 8 0 19 7 26 15 7 8 20 15 30 15 9 0 28 8
41 19 13 10 32 17 41 16 10 -2 16 2 15 8 -1 6 4 12 11 13 6 1 15 3 20 4 4 1
10 2 15 1 4 0 7 3 7 8 0 9 40 27 49 22 2 -2 7 2 11 9 4 6 16 12 28 13 11 0 20
6 19 12 -1 5 5 9 14 7 9 -1 19 5 23 13 3 9 10 14 16 10 5 -3 20 1 33 10 13 8
27 12 30 8 4 -3 7 -1 7 5 0 10 38 28 53 24 4 -1 7 3 7 8 0 5 3 9 8 8 4 -1 21
6 39 15 18 9 39 17 48 17 8 0 15 4 15 9 0 9 48 26 63 23 4 -1 7 3 7 9 0 6 7 9
15 5 8 -3 15 -1 15 4 0 6 8 10 18 10 9 0 28 9 42 20 14 11 35 20 47 20 12 0
28 7 36 15 12 11 17 12 20 2 4 -9 6 -9 6 1 1 6 8 12 16 12 8 0 15 4 15 9 0 6
9 8 20 6 11 -2 20 0 20 6 0 5 9 9 20 9 11 0 20 4 20 9 0 6 9 8 20 6 11 -2 20
1 20 7 0 5 7 7 16 4 10 -4 13 -2 8 6 -5 7 1 9 19 6 17 -3 24 -1 20 5 -4 6 0 8
11 4 10 -4 15 -3 11 3 -5 9 15 15 38 11 4 0 7 3 7 7 0 4 12 9 27 10 15 1 30 7
33 12 3 5 18 11 33 12 15 1 27 6 27 11 0 4 8 7 18 5 11 -2 25 2 33 9 13 10 41
18 94 25 11 2 26 8 32 15 7 6 26 10 42 9 16 -1 28 1 25 5 -2 4 3 10 12 13 10
4 13 2 8 -7 -6 -9 -4 -9 7 -1 8 6 22 10 32 9 9 -2 15 1 11 6 -3 5 -4 9 -2 9
55 7 85 14 95 22 7 5 17 7 23 3 5 -3 10 -2 10 3 0 5 11 8 25 7 14 -2 25 0 25
5 0 5 11 7 25 5 14 -1 25 2 25 7 0 6 6 8 14 5 7 -3 19 0 25 6 6 6 11 7 11 3 0
-5 8 -2 17 5 11 10 14 10 9 2 -4 -7 -2 -13 3 -13 6 0 11 4 11 10 0 5 14 8 31
6 20 -2 29 0 26 8 -3 8 6 11 29 9 19 -1 33 1 30 5 -2 4 16 7 40 7 27 0 46 5
49 13 3 10 10 10 25 2 12 -7 20 -7 20 -1 0 5 9 8 20 6 11 -2 20 1 20 7 0 7 4
7 13 -1 10 -8 17 -7 25 1 7 7 12 8 12 4 0 -5 7 -3 15 4 10 8 15 9 15 2 0 -6 7
-9 15 -6 8 4 13 9 11 13 -2 3 20 6 50 6 30 -1 54 2 54 6 0 3 14 5 31 3 16 -2
28 0 25 4 -2 4 18 7 46 7 27 0 51 2 53 6 2 3 29 5 59 5 30 -1 52 3 49 7 -3 5
3 7 13 6 11 -2 25 0 33 5 10 7 12 5 6 -3 -6 -10 -3 -11 13 -2 14 8 23 8 27 1
5 -8 11 -8 19 -1 7 6 16 8 19 4 4 -3 7 0 7 7 0 11 3 11 12 2 6 -6 18 -8 27 -3
9 4 40 7 68 7 29 -1 53 2 53 6 0 4 14 5 32 1 19 -4 29 -2 25 4 -3 5 0 10 8 10
8 0 12 -4 9 -9 -7 -11 7 -10 26 2 9 5 19 5 27 -2 7 -6 13 -6 13 -1 0 5 9 9 20
10 13 1 18 -2 13 -10 -4 -7 0 -6 10 2 9 7 17 10 17 5 0 -5 5 -2 10 6 7 10 10
11 10 2 0 -8 10 -10 33 -6 55 11 72 10 86 0 11 -8 13 -8 7 2 -4 7 -2 12 8 12
8 0 18 -5 22 -12 5 -8 11 -6 20 6 7 10 15 13 18 7 4 -6 18 -6 36 -1 21 6 30 5
30 -3 0 -8 3 -8 12 1 16 16 31 15 22 0 -5 -9 -2 -9 9 1 14 11 17 11 17 0 0 -9
3 -10 8 -4 4 6 30 10 57 9 28 0 58 3 67 8 9 4 19 4 22 -1 6 -9 60 -6 77 4 5 4
9 1 9 -5 0 -8 6 -8 20 0 14 8 20 8 20 0 0 -6 4 -9 9 -5 17 10 71 13 71 3 0 -5
6 -6 12 -2 18 12 168 11 168 0 0 -6 7 -1 16 10 8 10 13 14 10 8 -3 -7 1 -15
10 -18 8 -3 12 -2 9 4 -8 12 36 9 54 -4 11 -8 13 -8 8 0 -7 12 160 13 181 1 6
-5 12 -4 12 2 0 10 32 7 52 -5 7 -4 8 -3 4 4 -5 8 1 11 18 10 15 -1 26 -7 26
-13 0 -6 3 -7 8 0 8 12 112 15 112 4 0 -8 33 -4 50 6 6 3 10 1 10 -5 0 -8 6
-8 20 0 12 6 20 7 20 1 0 -6 11 -6 30 -1 17 5 30 6 30 2 0 -4 54 -7 120 -7 73
0 120 -4 120 -10 0 -5 5 -3 10 5 7 11 10 11 10 2 0 -9 5 -10 19 -2 13 6 22 7
26 0 3 -5 13 -6 22 -3 12 5 14 3 8 -7 -6 -9 -4 -11 5 -5 18 11 70 14 70 4 0
-5 11 -4 25 1 14 5 25 6 25 2 0 -4 21 -7 48 -7 26 0 53 -4 60 -9 7 -5 12 -5
12 1 0 5 9 9 19 9 11 0 17 -4 15 -8 -3 -4 2 -8 11 -8 10 0 13 5 9 13 -6 9 -4
9 7 1 8 -6 29 -10 47 -9 17 1 32 -1 32 -4 0 -4 33 -6 73 -6 49 0 78 -5 91 -15
12 -9 16 -10 12 -2 -4 6 -3 12 3 12 5 0 12 -6 14 -12 4 -10 6 -10 6 0 1 10 6
10 21 2 15 -8 20 -8 20 2 0 9 3 10 8 2 7 -11 19 -13 85 -15 20 -1 37 -6 37
-11 0 -6 7 -5 15 2 8 7 15 9 15 4 0 -5 17 -9 38 -9 20 0 43 -7 50 -15 12 -13
13 -13 8 4 -5 15 -4 17 7 8 8 -7 17 -9 20 -5 4 3 13 0 22 -7 12 -10 15 -10 15
1 0 9 3 10 8 3 7 -11 15 -13 77 -16 19 -1 35 -4 35 -8 0 -3 12 -6 28 -7 51 -1
82 -7 82 -16 0 -5 7 -4 15 3 12 10 15 10 15 0 0 -7 7 -10 15 -7 8 4 17 2 20
-3 3 -5 14 -7 25 -5 11 2 22 0 25 -4 2 -5 16 -7 30 -6 14 2 25 0 25 -4 0 -4
10 -7 23 -6 12 1 27 0 32 -4 14 -8 35 -12 76 -15 19 -2 44 -8 55 -13 10 -6 30
-9 42 -8 13 1 26 -3 28 -10 3 -6 17 -11 32 -10 15 0 30 -4 34 -9 3 -5 17 -10
30 -11 12 -1 43 -8 68 -15 68 -20 73 -21 97 -23 12 0 20 -4 17 -8 -2 -4 13
-10 34 -15 20 -4 40 -8 45 -9 4 -2 14 -3 23 -4 8 0 13 -5 9 -10 -3 -6 4 -8 15
-6 11 2 20 0 20 -5 0 -4 11 -7 25 -6 14 2 30 -3 36 -10 6 -7 18 -10 26 -7 12
5 14 3 8 -7 -5 -8 -3 -11 6 -8 8 3 23 -2 33 -11 11 -9 16 -10 12 -3 -4 6 -2
12 3 12 6 0 11 -3 11 -7 0 -5 11 -13 25 -20 14 -6 22 -7 19 -1 -4 6 1 6 12 0
31 -16 88 -37 97 -34 4 1 7 -3 7 -8 0 -6 9 -10 20 -10 11 0 20 -4 20 -9 0 -6
9 -8 20 -6 11 2 20 -1 20 -6 0 -6 5 -7 10 -4 6 3 10 1 10 -6 0 -7 3 -9 6 -6 4
3 16 1 28 -5 23 -13 28 -15 52 -17 8 0 12 -6 9 -11 -4 -6 -3 -9 2 -8 13 4 93
-24 88 -31 -2 -4 8 -8 23 -9 15 -1 29 -7 30 -12 2 -6 11 -10 21 -10 9 0 27 -7
39 -16 12 -8 22 -13 22 -9 0 3 10 -1 23 -10 13 -8 27 -12 30 -8 4 3 7 2 7 -4
0 -6 10 -14 23 -18 12 -4 25 -8 30 -10 4 -1 12 -3 18 -4 5 0 7 -6 3 -13 -4 -6
-3 -8 3 -5 5 3 26 -2 45 -13 20 -10 39 -16 42 -13 3 4 6 1 6 -6 0 -7 4 -10 9
-7 5 3 14 -1 21 -9 7 -8 21 -15 31 -15 11 0 19 -4 19 -10 0 -5 9 -10 20 -10
11 0 20 -3 20 -7 0 -5 11 -13 25 -20 16 -7 23 -7 19 -1 -6 9 51 -27 66 -42 3
-3 14 -6 25 -8 11 -2 25 -10 31 -18 13 -17 28 -19 18 -2 -4 6 5 3 19 -8 15
-10 27 -22 27 -26 0 -4 7 -5 15 -2 8 4 15 1 15 -6 0 -6 5 -8 10 -5 6 3 13 0
16 -9 3 -8 12 -17 20 -20 10 -4 13 -2 8 7 -4 6 5 1 21 -13 16 -14 25 -18 21
-10 -4 8 -1 7 8 -4 8 -10 19 -15 24 -12 6 3 13 -1 16 -10 3 -8 10 -12 16 -9 5
3 10 2 10 -4 0 -9 26 -21 43 -20 5 0 16 -8 25 -18 9 -10 24 -19 32 -21 8 -2
26 -11 40 -20 14 -8 25 -14 25 -11 0 2 11 -6 25 -18 13 -13 32 -23 42 -23 10
0 18 -4 18 -10 0 -5 7 -10 15 -10 8 0 15 -4 15 -10 0 -5 7 -10 15 -10 8 0 15
-4 15 -10 0 -5 3 -9 8 -8 12 3 62 -24 62 -34 0 -4 7 -8 15 -8 9 0 25 -9 37
-20 12 -11 28 -20 35 -20 7 0 13 -4 13 -10 0 -5 9 -10 21 -10 11 0 17 -4 14
-10 -3 -5 3 -10 15 -10 12 0 18 -4 15 -10 -5 -9 1 -12 21 -9 3 0 14 -9 23 -20
10 -11 21 -18 25 -14 3 3 6 1 6 -6 0 -7 5 -9 10 -6 6 3 10 3 10 -2 0 -4 14
-14 30 -21 17 -8 27 -18 23 -25 -4 -6 0 -8 10 -4 11 4 17 1 17 -8 0 -8 9 -15
20 -15 11 0 20 -4 20 -8 0 -4 13 -16 30 -25 16 -10 35 -23 42 -30 26 -24 77
-57 88 -57 6 0 9 -4 5 -9 -3 -5 4 -12 15 -16 11 -3 20 -11 20 -17 0 -6 3 -9 6
-5 3 3 16 -4 29 -16 31 -31 64 -57 71 -57 6 0 30 -20 52 -42 9 -10 23 -18 32
-18 13 0 13 -1 0 -10 -13 -9 -13 -10 1 -10 14 0 36 -18 121 -96 14 -13 31 -24
37 -24 6 0 11 -7 11 -15 0 -9 8 -19 17 -22 23 -9 69 -55 65 -65 -1 -4 2 -8 8
-8 5 0 25 -16 44 -35 20 -19 40 -35 45 -35 5 0 13 -9 16 -20 3 -11 14 -20 22
-20 9 0 14 -3 10 -6 -8 -8 16 -33 26 -27 4 2 7 -3 7 -12 0 -9 5 -13 10 -10 6
3 10 1 10 -5 0 -14 25 -40 39 -40 5 0 13 -9 16 -21 4 -11 9 -18 13 -15 6 7 52
-58 52 -73 0 -6 4 -11 9 -11 5 0 14 -13 21 -30 7 -16 17 -30 22 -30 5 0 7 -4
4 -9 -3 -5 1 -14 9 -21 8 -7 12 -16 9 -21 -3 -5 0 -9 7 -9 7 0 10 -3 6 -6 -3
-3 3 -15 14 -27 10 -11 19 -29 19 -39 0 -10 5 -18 10 -18 6 0 10 -12 10 -26 0
-14 4 -23 10 -19 6 3 10 -3 10 -14 0 -12 4 -21 10 -21 5 0 7 -7 4 -15 -4 -8
-2 -15 4 -15 6 0 8 -9 5 -20 -3 -11 0 -20 6 -20 6 0 11 -11 11 -24 0 -14 5
-28 10 -31 6 -3 10 -14 10 -23 0 -19 41 -105 53 -110 4 -2 7 -9 7 -16 0 -18
24 -66 33 -66 5 0 6 -4 2 -9 -3 -5 -1 -12 5 -16 6 -4 8 -11 5 -16 -4 -5 -1 -9
4 -9 6 0 11 -7 11 -15 0 -8 5 -15 10 -15 6 0 9 -3 8 -8 -4 -10 45 -122 54
-122 4 0 5 -9 3 -19 -2 -11 3 -22 12 -25 8 -4 13 -13 9 -21 -3 -9 1 -15 10
-15 12 0 15 -6 11 -21 -3 -12 0 -22 9 -26 8 -3 11 -9 8 -14 -3 -6 -1 -15 4
-22 6 -7 12 -21 14 -32 1 -11 8 -23 13 -27 6 -4 11 -12 11 -18 1 -5 3 -12 4
-15 1 -3 3 -8 5 -12 1 -5 7 -21 14 -38 7 -16 13 -32 13 -35 0 -3 10 -18 21
-34 12 -17 15 -26 6 -21 -10 7 -9 2 3 -18 10 -14 18 -35 18 -47 0 -11 5 -20
10 -20 6 0 10 -9 10 -20 0 -11 5 -20 12 -20 6 0 8 -3 5 -7 -4 -3 -1 -13 6 -21
6 -9 7 -13 1 -9 -6 3 2 -20 17 -51 15 -31 25 -65 23 -75 -1 -10 1 -15 7 -12 8
6 14 -26 9 -50 -1 -5 2 -7 6 -2 7 6 36 -70 49 -127 3 -11 10 -23 16 -27 7 -4
9 -14 6 -23 -3 -8 -2 -18 4 -21 5 -4 7 -11 4 -16 -4 -5 -1 -9 4 -9 6 0 11 -11
11 -25 0 -14 6 -25 13 -25 9 0 8 -3 -2 -9 -7 -5 -9 -10 -3 -12 6 -2 12 -13 14
-24 1 -11 7 -23 12 -26 4 -4 9 -21 10 -38 0 -17 4 -31 8 -31 5 0 8 -11 8 -25
0 -14 4 -25 9 -25 6 0 10 -8 10 -17 0 -25 6 -51 14 -59 4 -4 7 -15 7 -25 0 -9
6 -20 13 -22 10 -4 10 -6 0 -6 -7 -1 -13 -6 -13 -12 0 -5 4 -8 9 -5 8 5 14
-14 28 -91 3 -18 9 -33 13 -33 4 0 8 -10 8 -22 0 -31 5 -52 15 -59 4 -3 8 -22
9 -43 1 -20 5 -39 10 -42 4 -3 8 -16 8 -30 0 -13 3 -24 8 -24 4 0 7 -16 8 -36
0 -20 5 -39 11 -42 5 -4 9 -19 8 -35 -1 -15 4 -32 12 -38 10 -9 10 -15 2 -25
-9 -11 -8 -14 1 -14 7 0 10 -7 6 -15 -3 -8 0 -15 7 -15 8 0 7 -4 -3 -10 -12
-8 -12 -10 3 -16 13 -5 15 -10 7 -19 -8 -9 -8 -15 0 -20 5 -3 10 -20 10 -36 0
-20 4 -28 12 -23 6 4 8 3 4 -4 -9 -15 4 -93 15 -86 5 3 4 -7 -1 -21 -7 -18 -7
-24 0 -20 6 4 10 -5 8 -22 -1 -15 4 -39 11 -52 10 -18 10 -22 0 -16 -8 6 -10
4 -4 -5 4 -6 10 -29 12 -49 3 -20 10 -39 17 -43 8 -6 7 -8 -2 -8 -10 0 -10 -5
-2 -21 7 -11 9 -27 6 -34 -2 -7 2 -19 10 -26 10 -8 11 -15 4 -24 -5 -6 -7 -14
-4 -18 6 -5 16 -78 17 -124 1 -13 4 -23 7 -23 4 0 6 -18 6 -40 -1 -22 1 -40 4
-40 4 0 5 -13 4 -30 -1 -16 1 -30 5 -30 4 0 8 -15 8 -32 0 -18 4 -42 8 -52 6
-14 5 -17 -3 -12 -8 5 -10 2 -6 -8 3 -9 11 -13 18 -9 6 4 6 0 -2 -9 -9 -12
-10 -18 -2 -23 8 -5 8 -11 -1 -21 -7 -9 -8 -14 -1 -14 6 0 10 -12 8 -27 -1
-16 2 -34 7 -40 6 -9 5 -13 -4 -13 -10 -1 -9 -5 4 -14 14 -11 15 -15 5 -19
-11 -4 -10 -7 1 -15 9 -7 10 -12 2 -16 -6 -4 -8 -12 -5 -18 6 -10 15 -102 15
-150 0 -10 6 -18 12 -18 8 0 7 -3 -2 -9 -8 -5 -10 -14 -6 -21 4 -7 9 -31 10
-55 1 -23 6 -48 10 -55 5 -9 4 -11 -3 -6 -7 4 -12 3 -12 -3 0 -5 6 -12 13 -14
9 -4 8 -6 -2 -6 -10 -1 -10 -7 4 -27 9 -15 13 -24 7 -20 -5 3 -9 -5 -9 -19 0
-14 2 -23 6 -21 9 6 7 -37 -2 -51 -4 -7 -3 -15 3 -18 8 -5 8 -11 1 -19 -6 -7
-8 -16 -4 -20 4 -3 7 -57 8 -119 1 -61 5 -120 9 -129 7 -15 22 -17 106 -15 97
2 98 2 94 -21 -3 -13 -1 -21 5 -18 10 7 9 -19 -1 -30 -10 -9 3 -35 14 -28 6 4
5 -2 -1 -14 -8 -16 -8 -23 1 -28 8 -5 6 -10 -8 -15 -13 -5 -14 -8 -4 -8 12 -1
15 -19 15 -101 0 -55 3 -100 7 -100 4 0 3 -11 -2 -25 -6 -16 -6 -26 1 -31 6
-4 6 -11 -2 -20 -9 -11 -9 -14 1 -14 10 0 10 -3 0 -15 -10 -12 -10 -15 0 -15
8 0 9 -6 5 -17 -10 -23 -10 -33 -1 -62 6 -16 5 -21 -3 -17 -14 9 -10 -16 3
-26 6 -4 4 -13 -3 -22 -8 -9 -9 -16 -5 -16 11 0 11 -127 1 -137 -11 -10 -8
-23 4 -23 5 0 7 5 3 12 -4 7 -3 8 5 4 7 -5 9 -12 3 -19 -4 -7 -8 -21 -7 -32 0
-11 -3 -28 -7 -37 -5 -9 -4 -19 1 -23 6 -3 8 -14 6 -25 -2 -11 0 -20 4 -20 5
0 9 -11 9 -25 0 -13 -4 -22 -9 -19 -5 3 -9 1 -9 -5 0 -6 -7 -8 -15 -5 -8 4
-13 9 -10 13 2 4 -9 5 -26 3 -16 -2 -29 0 -29 5 0 5 -10 9 -22 10 -55 1 -69 4
-64 11 3 5 -1 9 -9 9 -8 0 -12 -5 -8 -10 3 -5 -2 -5 -13 1 -28 14 -86 13 -77
-1 4 -7 0 -6 -10 2 -13 10 -17 10 -17 1 0 -10 -3 -10 -14 -1 -10 8 -16 9 -21
1 -3 -6 -11 -8 -16 -5 -5 4 -9 2 -9 -4 0 -6 -11 -6 -30 -1 -19 5 -28 5 -25 -1
6 -9 -7 -13 -39 -9 -10 1 -15 -3 -12 -8 4 -6 -2 -8 -14 -5 -11 3 -28 -1 -37
-8 -14 -12 -16 -12 -8 1 6 12 5 13 -6 3 -7 -7 -26 -13 -41 -13 -15 0 -28 -5
-28 -11 0 -6 -7 -9 -15 -5 -8 3 -15 1 -15 -4 0 -6 -3 -9 -7 -8 -5 0 -16 -2
-26 -7 -10 -4 -20 -5 -24 -2 -3 3 -12 -1 -20 -9 -8 -8 -19 -11 -24 -8 -6 3
-17 -2 -24 -12 -10 -13 -14 -15 -15 -5 0 10 -3 11 -13 2 -8 -6 -17 -8 -20 -4
-4 3 -7 0 -7 -7 0 -7 -3 -10 -7 -7 -3 4 -17 0 -29 -8 -17 -11 -24 -12 -27 -2
-4 8 -8 8 -14 2 -4 -5 -19 -11 -33 -12 -14 -1 -37 -4 -51 -6 -22 -3 -26 0 -26
20 0 12 4 23 9 23 5 0 7 4 4 8 -3 5 1 21 9 36 8 14 10 24 5 21 -6 -4 -10 -1
-10 4 0 6 4 11 8 11 4 0 9 17 10 38 1 20 5 54 8 75 3 24 1 37 -4 33 -6 -3 -8
8 -5 28 3 24 0 35 -12 40 -12 4 -14 10 -5 25 7 13 7 22 0 26 -6 4 -8 11 -5 16
4 5 1 9 -5 9 -6 0 -8 5 -5 10 3 6 1 10 -4 10 -6 0 -11 8 -11 19 0 10 -7 24
-15 31 -8 7 -13 16 -10 20 3 5 -1 15 -9 23 -8 8 -12 17 -9 21 4 3 1 6 -5 6 -7
0 -12 7 -12 15 0 8 -4 15 -10 15 -5 0 -10 5 -10 11 0 12 -59 92 -72 97 -5 2
-8 10 -8 18 0 9 -3 13 -7 11 -5 -3 -13 1 -20 8 -10 11 -10 15 0 18 8 4 7 6 -3
6 -9 1 -28 16 -44 34 -16 17 -31 32 -34 32 -4 0 -23 17 -44 38 -21 21 -38 36
-38 32 0 -4 -7 0 -15 7 -26 23 -39 33 -70 48 -16 8 -34 21 -38 28 -5 7 -12 10
-16 7 -5 -2 -14 2 -21 10 -7 8 -16 12 -21 9 -5 -3 -9 0 -9 5 0 6 -9 11 -20 11
-11 0 -20 5 -20 10 0 6 -9 10 -20 10 -11 0 -20 5 -20 10 0 6 -11 10 -24 10
-14 0 -28 5 -31 10 -3 6 -19 10 -36 10 -16 0 -29 5 -29 10 0 6 -13 10 -30 10
-16 0 -30 3 -30 8 0 4 -17 8 -38 10 -52 4 -65 6 -81 16 -11 7 -12 6 -6 -5 7
-11 6 -12 -6 -3 -8 7 -32 12 -54 12 -22 0 -44 1 -50 2 -28 6 -155 4 -155 -2 0
-3 -10 -4 -22 0 -16 4 -19 2 -13 -9 8 -12 6 -12 -8 0 -14 11 -20 11 -32 1 -12
-10 -15 -10 -15 0 0 9 -3 10 -13 1 -8 -6 -17 -8 -20 -4 -4 3 -7 2 -7 -4 0 -6
-14 -9 -31 -7 -20 3 -28 0 -23 -8 5 -7 3 -8 -6 -3 -7 4 -16 2 -21 -6 -7 -12
-9 -12 -9 0 0 11 -3 11 -15 1 -8 -7 -15 -9 -15 -5 0 4 -7 2 -15 -5 -8 -6 -19
-9 -25 -5 -5 3 -10 1 -10 -5 0 -7 -7 -10 -15 -6 -8 3 -15 1 -15 -4 0 -6 -7
-10 -15 -10 -8 0 -31 -9 -50 -20 -20 -11 -40 -18 -46 -15 -5 4 -9 2 -9 -4 0
-6 -11 -13 -25 -17 -14 -3 -25 -11 -25 -16 0 -6 -7 -8 -15 -4 -8 3 -14 0 -12
-7 1 -7 -4 -11 -10 -9 -7 1 -13 -3 -13 -9 0 -5 -4 -7 -10 -4 -5 3 -10 1 -10
-4 0 -6 -6 -11 -13 -11 -7 0 -19 -9 -27 -20 -8 -11 -19 -20 -26 -20 -6 0 -29
-18 -51 -40 -22 -21 -43 -36 -47 -33 -3 4 -6 -2 -6 -12 0 -10 -3 -16 -6 -12
-7 7 -44 -29 -44 -44 0 -5 -4 -7 -10 -4 -5 3 -10 1 -10 -4 0 -6 -13 -23 -30
-37 -16 -15 -32 -35 -36 -46 -3 -10 -10 -16 -15 -13 -5 4 -9 0 -9 -8 0 -8 -7
-18 -16 -21 -9 -4 -14 -13 -10 -22 3 -8 2 -12 -4 -9 -6 3 -10 2 -10 -3 0 -5
-10 -20 -22 -34 -43 -47 -68 -82 -68 -96 0 -7 -4 -10 -10 -7 -5 3 -10 -1 -10
-9 0 -9 -5 -16 -11 -16 -5 0 -8 -4 -4 -9 3 -6 0 -13 -7 -18 -7 -4 -19 -20 -27
-35 -8 -15 -18 -25 -23 -22 -5 3 -7 2 -6 -3 4 -14 -48 -93 -57 -86 -4 5 -6 1
-3 -7 3 -8 -4 -23 -14 -32 -11 -9 -20 -20 -20 -25 -1 -19 -11 -32 -19 -27 -5
3 -8 2 -7 -3 4 -12 -62 -123 -73 -123 -6 0 -7 -4 -4 -10 3 -5 2 -10 -3 -10 -6
0 -15 -13 -21 -30 -5 -17 -15 -30 -21 -30 -6 0 -8 -5 -5 -10 3 -6 -1 -13 -9
-16 -9 -3 -13 -10 -10 -15 3 -5 -5 -19 -18 -31 -13 -13 -24 -30 -26 -38 -2 -8
-8 -17 -13 -18 -5 -2 -7 -8 -3 -13 3 -5 0 -9 -6 -9 -6 0 -9 -4 -6 -9 3 -5 0
-11 -7 -14 -8 -3 -22 -21 -31 -41 -9 -20 -21 -36 -26 -36 -6 0 -10 -3 -9 -7 3
-18 -14 -52 -22 -47 -5 3 -9 -4 -9 -14 0 -11 -7 -23 -16 -26 -8 -3 -13 -10
-10 -15 6 -8 -31 -63 -46 -69 -5 -2 -6 -8 -2 -13 3 -5 0 -9 -6 -9 -6 0 -8 -5
-5 -10 3 -6 -1 -13 -9 -16 -9 -3 -14 -10 -11 -14 3 -4 -2 -13 -10 -20 -8 -7
-12 -16 -9 -21 3 -5 0 -9 -5 -9 -6 0 -11 -7 -11 -16 0 -8 -4 -12 -10 -9 -5 3
-10 -3 -10 -14 0 -12 -4 -21 -10 -21 -5 0 -10 -6 -10 -14 0 -7 -10 -24 -22
-37 -13 -14 -23 -30 -24 -37 -2 -29 -5 -33 -14 -27 -5 3 -11 1 -11 -4 -1 -6
-2 -16 -3 -21 0 -6 -8 -15 -16 -20 -8 -5 -11 -10 -6 -10 4 0 -3 -15 -17 -34
-15 -18 -23 -36 -20 -40 4 -3 1 -6 -6 -6 -7 0 -9 -4 -6 -10 3 -5 -1 -10 -9
-10 -9 0 -15 -3 -14 -7 3 -13 -13 -53 -22 -53 -4 0 -13 -13 -19 -30 -5 -17
-15 -30 -20 -30 -6 0 -11 -9 -11 -20 0 -11 -5 -20 -11 -20 -6 0 -8 -7 -5 -16
3 -8 2 -12 -4 -9 -6 3 -10 -1 -10 -9 0 -8 -8 -20 -17 -25 -10 -6 -14 -11 -10
-11 5 0 0 -13 -9 -29 -10 -17 -21 -28 -25 -25 -4 2 -5 -6 -1 -18 3 -12 1 -19
-4 -15 -5 3 -25 -23 -43 -58 -19 -35 -39 -61 -44 -58 -6 3 -7 1 -3 -5 3 -6 2
-13 -4 -17 -6 -4 -8 -10 -5 -15 3 -5 -1 -12 -9 -17 -7 -4 -16 -17 -18 -28 -2
-11 -10 -19 -17 -17 -7 1 -10 -2 -7 -7 4 -6 -10 -35 -29 -65 -20 -31 -33 -56
-29 -56 4 0 -3 -8 -14 -19 -12 -10 -19 -20 -17 -23 3 -3 -1 -11 -10 -18 -8 -7
-15 -21 -15 -32 0 -10 -4 -17 -9 -14 -5 3 -12 -5 -15 -19 -4 -14 -11 -25 -17
-25 -6 0 -7 -5 -4 -10 3 -6 0 -13 -9 -16 -8 -3 -12 -12 -9 -20 3 -7 -2 -17
-11 -20 -9 -3 -14 -10 -11 -14 3 -5 -2 -13 -11 -18 -9 -5 -16 -13 -16 -18 -1
-20 -21 -53 -29 -48 -5 3 -6 -2 -3 -10 3 -9 1 -16 -6 -16 -6 0 -8 -4 -5 -10 3
-6 1 -10 -4 -10 -6 0 -11 -7 -11 -15 0 -8 -8 -15 -17 -15 -13 0 -14 -3 -5 -8
9 -6 8 -13 -6 -28 -10 -10 -26 -36 -35 -56 -10 -21 -22 -38 -28 -38 -6 0 -7
-5 -3 -11 3 -6 2 -14 -4 -18 -11 -7 -50 -68 -58 -94 -4 -9 -11 -17 -16 -17 -5
0 -7 -4 -3 -9 3 -5 1 -12 -5 -16 -6 -4 -7 -11 -4 -17 4 -6 2 -8 -3 -5 -6 4
-16 -7 -23 -23 -7 -17 -17 -30 -22 -30 -5 0 -6 -4 -3 -10 3 -5 1 -10 -5 -10
-6 0 -9 -4 -6 -8 3 -5 -4 -19 -15 -30 -11 -12 -17 -22 -13 -22 3 0 -6 -16 -20
-35 -15 -19 -24 -40 -21 -45 3 -6 2 -10 -3 -10 -4 0 -19 -14 -31 -31 -13 -18
-18 -28 -10 -23 7 4 4 -5 -9 -20 -12 -16 -22 -35 -22 -43 0 -8 -4 -12 -9 -9
-5 3 -12 -5 -15 -19 -4 -14 -11 -25 -16 -25 -5 0 -7 -6 -4 -14 3 -7 -2 -16
-11 -20 -9 -3 -13 -10 -10 -16 3 -5 2 -10 -4 -10 -6 0 -13 -11 -17 -25 -3 -14
-9 -25 -13 -25 -4 0 -18 -23 -31 -50 -13 -28 -27 -50 -32 -50 -4 0 -8 -7 -8
-15 0 -8 -10 -24 -22 -36 -13 -12 -16 -18 -8 -14 11 6 10 3 -2 -12 -10 -11
-18 -25 -18 -31 0 -7 -5 -12 -11 -12 -5 0 -7 -4 -4 -10 3 -5 1 -10 -5 -10 -6
0 -8 -4 -5 -10 3 -5 2 -10 -2 -10 -5 0 -17 -17 -28 -37 -11 -21 -26 -44 -32
-51 -12 -12 -14 -20 -12 -38 0 -3 -9 -14 -21 -24 -12 -10 -21 -22 -21 -27 0
-4 -21 -44 -47 -88 -25 -44 -45 -83 -44 -87 1 -5 -2 -8 -7 -8 -5 0 -12 -11
-15 -25 -4 -14 -11 -25 -16 -25 -6 0 -10 -6 -10 -13 0 -8 -9 -24 -20 -37 -11
-13 -20 -29 -20 -37 0 -7 -4 -13 -10 -13 -5 0 -10 -7 -10 -15 0 -7 -8 -19 -17
-24 -13 -7 -14 -10 -4 -11 10 0 9 -5 -5 -18 -10 -9 -20 -24 -22 -32 -2 -8 -9
-18 -15 -22 -6 -4 -8 -10 -4 -14 3 -4 -1 -14 -11 -23 -10 -9 -24 -31 -31 -48
-7 -18 -17 -30 -22 -27 -5 3 -8 2 -7 -3 4 -15 -13 -53 -24 -53 -6 0 -8 -3 -5
-6 4 -4 -3 -20 -14 -35 -11 -16 -17 -29 -12 -29 4 0 0 -5 -9 -11 -10 -5 -18
-17 -18 -24 0 -8 -5 -15 -11 -15 -5 0 -8 -4 -4 -9 3 -5 1 -12 -5 -16 -5 -3
-15 -15 -21 -27 -9 -16 -8 -19 3 -13 7 3 0 -5 -15 -19 -16 -14 -25 -31 -22
-36 3 -6 2 -10 -3 -10 -5 0 -17 -18 -28 -40 -10 -22 -23 -40 -27 -40 -5 0 -5
-5 -2 -10 3 -6 1 -10 -5 -10 -6 0 -9 -4 -6 -8 3 -5 -7 -21 -22 -37 -15 -16
-25 -31 -24 -33 6 -5 -27 -82 -35 -82 -5 0 -17 -18 -27 -40 -11 -22 -23 -40
-28 -40 -5 0 -7 -4 -3 -10 3 -5 -3 -18 -15 -30 -11 -11 -19 -21 -19 -22 5 -7
-13 -48 -21 -48 -4 0 -11 -11 -14 -25 -4 -14 -11 -25 -17 -25 -6 0 -7 -5 -4
-10 3 -6 -1 -13 -9 -16 -9 -3 -14 -10 -11 -14 3 -5 1 -11 -5 -15 -6 -4 -8 -11
-5 -16 4 -5 1 -9 -4 -9 -6 0 -11 -5 -11 -11 0 -6 -7 -17 -15 -26 -8 -8 -13
-19 -10 -24 4 -5 1 -9 -4 -9 -6 0 -11 -7 -11 -15 0 -8 -4 -15 -9 -15 -7 0 -22
-36 -20 -49 0 -2 -4 -7 -9 -10 -5 -3 -17 -21 -26 -38 -9 -18 -21 -33 -26 -33
-5 0 -7 -7 -4 -15 4 -8 1 -15 -6 -15 -6 0 -9 -4 -6 -8 3 -5 -4 -19 -15 -31
-11 -12 -17 -26 -14 -31 3 -6 2 -10 -4 -10 -5 0 -17 -18 -27 -40 -10 -22 -21
-40 -25 -40 -7 0 -22 -39 -20 -52 1 -5 -4 -8 -9 -8 -6 0 -10 -7 -10 -15 0 -8
-5 -15 -11 -15 -5 0 -7 -5 -4 -10 3 -6 2 -10 -2 -10 -7 0 -38 -65 -31 -65 2 0
-7 -11 -19 -24 -12 -13 -20 -28 -17 -33 3 -4 0 -8 -5 -8 -6 0 -11 -7 -11 -15
0 -8 -9 -24 -19 -34 -11 -11 -17 -22 -14 -25 8 -8 -23 -47 -32 -38 -5 4 -5 2
-2 -4 3 -6 -5 -31 -18 -56 -13 -25 -21 -49 -17 -53 4 -5 1 -5 -5 -1 -11 6 -15
1 -12 -20 0 -3 -8 -12 -18 -21 -10 -8 -11 -11 -3 -7 12 6 11 3 -2 -12 -9 -10
-18 -26 -20 -34 -2 -8 -11 -22 -20 -31 -10 -9 -15 -19 -12 -22 4 -3 -4 -20
-16 -36 -12 -17 -18 -31 -15 -31 4 0 -1 -7 -9 -16 -9 -8 -16 -22 -16 -30 0 -8
-5 -14 -11 -14 -5 0 -7 -4 -4 -10 3 -6 1 -10 -5 -10 -6 0 -9 -4 -5 -9 3 -5 -1
-15 -8 -23 -8 -7 -13 -21 -11 -30 1 -10 -1 -16 -4 -15 -4 1 -8 -3 -10 -8 -2
-6 -10 -17 -17 -25 -7 -8 -14 -18 -15 -22 -8 -34 -14 -48 -21 -48 -5 0 -8 -3
-7 -7 4 -15 -13 -53 -23 -53 -6 0 -7 -5 -3 -11 3 -6 3 -14 -2 -18 -5 -3 -15
-16 -22 -29 -10 -18 -10 -22 0 -22 9 0 8 -3 -2 -10 -8 -5 -15 -14 -15 -20 0
-6 -7 -15 -15 -20 -8 -5 -11 -10 -6 -10 5 0 2 -8 -5 -17 -12 -14 -12 -15 0 -9
9 6 8 0 -4 -17 -9 -15 -13 -32 -9 -38 4 -7 3 -9 -3 -6 -11 7 -21 -15 -30 -63
-2 -13 -9 -28 -15 -31 -6 -4 -9 -18 -6 -33 3 -14 1 -23 -3 -20 -5 3 -10 2 -10
-3 -1 -4 -3 -19 -6 -33 -2 -14 -4 -37 -5 -52 0 -15 -3 -26 -7 -24 -4 3 -7 -16
-8 -41 -1 -26 -8 -50 -15 -54 -7 -5 -8 -9 -3 -9 6 0 11 -9 12 -20 1 -11 -2
-18 -6 -16 -4 3 -8 -1 -8 -9 0 -8 5 -15 11 -15 6 0 4 -5 -4 -10 -13 -9 -13
-10 0 -10 9 0 11 -3 5 -8 -15 -11 -17 -32 -3 -32 9 0 9 -3 0 -12 -16 -16 -15
-31 1 -22 8 5 8 2 -2 -9 -10 -13 -10 -17 -1 -17 9 0 9 -4 -1 -17 -9 -10 -9
-14 -2 -10 9 6 11 -2 9 -28 -1 -19 1 -35 4 -35 4 0 5 -11 2 -25 -3 -17 0 -25
9 -25 11 0 11 -2 -1 -10 -8 -5 -10 -10 -5 -10 6 0 12 -12 13 -27 1 -15 8 -30
15 -35 9 -6 8 -8 -3 -8 -13 0 -13 -1 0 -10 8 -5 11 -10 6 -10 -6 0 -5 -5 1
-11 6 -6 9 -18 6 -25 -3 -8 0 -14 6 -14 6 0 11 -11 11 -25 0 -14 5 -25 10 -25
6 0 10 -6 9 -12 -3 -26 1 -39 11 -33 6 4 10 -5 10 -19 0 -14 5 -26 11 -26 5 0
7 -5 4 -10 -3 -6 0 -13 9 -16 8 -3 12 -12 9 -20 -3 -8 0 -14 7 -14 6 0 8 -4 5
-10 -3 -5 -1 -10 5 -10 6 0 8 -5 5 -10 -3 -6 1 -10 9 -10 9 0 16 -8 16 -19 0
-10 7 -22 16 -25 9 -4 14 -9 11 -12 -3 -3 4 -16 16 -29 37 -38 57 -65 57 -76
0 -5 4 -7 10 -4 5 3 15 -5 22 -19 6 -14 14 -26 18 -26 12 0 50 -37 50 -49 0
-7 4 -10 9 -6 5 3 16 -4 24 -15 7 -11 17 -17 20 -14 4 4 9 -1 13 -10 3 -9 10
-16 16 -16 5 0 16 -6 23 -13 8 -6 20 -16 27 -22 7 -5 22 -17 33 -25 17 -13 18
-13 11 0 -4 8 1 6 11 -5 10 -11 25 -21 33 -23 8 -2 22 -10 31 -18 8 -8 23 -14
32 -14 9 0 19 -5 22 -10 3 -6 15 -10 26 -10 10 0 19 -5 19 -12 0 -6 3 -8 7 -5
3 4 12 2 20 -4 7 -6 13 -9 13 -6 0 3 16 -1 35 -9 19 -8 35 -12 35 -8 0 3 6 -1
14 -9 9 -8 26 -12 40 -10 15 3 26 1 26 -6 0 -6 7 -8 17 -4 9 4 14 2 11 -3 -4
-5 11 -8 33 -8 21 1 39 -1 39 -5 0 -4 7 -8 15 -8 8 0 15 5 15 11 0 6 5 4 10
-4 5 -8 10 -11 10 -6 0 5 7 3 15 -4 11 -9 15 -9 15 -1 0 7 4 9 10 6 14 -9 114
-10 127 -2 7 4 14 3 17 -1 3 -5 17 -7 31 -5 13 3 23 9 20 13 -6 10 15 8 31 -3
6 -3 14 -3 18 1 8 7 13 8 59 10 16 1 26 6 23 11 -3 5 0 9 7 8 31 -1 48 4 43
12 -4 5 3 7 14 4 12 -3 20 0 20 6 0 7 5 9 10 6 6 -3 13 1 16 9 3 9 10 14 14
11 5 -3 11 -1 15 5 3 5 13 10 21 10 8 0 12 -4 9 -10 -3 -5 -2 -10 3 -10 5 0
15 -15 23 -33 7 -17 22 -45 33 -61 12 -19 15 -26 5 -21 -10 6 -10 3 2 -11 9
-10 14 -24 12 -31 -2 -6 1 -14 6 -18 6 -3 11 -16 11 -29 0 -12 6 -28 13 -35
10 -11 9 -12 -2 -6 -10 6 -12 4 -5 -6 11 -17 15 -36 17 -72 1 -15 6 -27 10
-27 5 0 5 -5 2 -10 -4 -6 -1 -17 5 -25 10 -12 10 -15 0 -15 -9 0 -7 -7 6 -22
10 -12 13 -18 6 -14 -10 6 -11 4 -4 -10 10 -21 32 -82 36 -101 1 -7 5 -16 9
-19 4 -4 7 -16 7 -26 0 -11 4 -17 9 -13 6 3 8 -4 6 -15 -2 -11 0 -20 5 -20 5
0 12 -11 16 -25 3 -14 9 -25 13 -25 3 0 12 -12 18 -27 12 -26 38 -62 77 -106
9 -9 16 -19 16 -22 0 -13 45 -55 59 -55 14 0 14 -1 1 -10 -13 -9 -13 -10 0
-11 8 -1 18 -1 23 0 4 0 7 -4 7 -10 0 -6 7 -17 15 -25 8 -9 15 -13 15 -9 0 3
12 -7 28 -24 15 -16 34 -31 42 -33 8 -2 21 -11 28 -20 7 -10 20 -18 28 -18 8
0 14 -4 14 -10 0 -5 9 -10 21 -10 11 0 17 -4 14 -10 -3 -5 3 -10 14 -10 12 0
21 -3 21 -7 0 -11 50 -33 73 -33 10 0 15 -5 12 -10 -4 -6 5 -10 19 -10 14 0
26 -5 26 -11 0 -6 6 -9 14 -6 8 3 20 -1 26 -8 7 -8 17 -12 22 -9 6 4 14 0 19
-7 7 -11 9 -11 9 -1 0 10 4 10 23 0 12 -7 26 -11 31 -10 4 2 14 -3 22 -9 11
-9 14 -9 14 1 0 10 3 10 15 0 8 -7 15 -9 15 -4 0 5 5 2 10 -6 8 -12 10 -12 10
-1 0 11 3 11 15 1 12 -10 15 -10 15 0 0 10 3 10 15 0 12 -10 15 -10 15 1 0 12
2 12 9 1 4 -8 12 -14 16 -14 4 0 12 6 16 14 7 10 9 10 9 0 0 -10 5 -10 20 -2
15 8 20 8 20 -1 0 -8 4 -8 15 1 12 10 18 10 32 -1 11 -10 14 -10 9 -1 -5 8 1
13 21 14 15 1 37 2 48 3 11 1 19 7 17 15 -3 11 0 11 12 0 13 -10 16 -10 16 1
0 11 2 11 10 -1 7 -11 10 -11 10 -2 0 7 4 11 9 7 5 -3 12 -1 16 5 3 5 16 10
29 10 12 0 28 6 35 13 11 10 12 9 6 -3 -7 -12 -5 -12 11 1 10 9 25 14 33 11 9
-3 11 0 6 8 -6 9 -4 11 4 6 7 -5 21 0 33 11 12 10 18 13 15 6 -4 -6 11 -3 32
8 22 10 45 19 51 19 5 0 10 5 10 10 0 6 9 10 20 10 11 0 20 5 20 11 0 5 4 8 9
4 5 -3 16 2 24 10 9 8 23 15 31 15 9 0 16 5 16 10 0 6 6 10 14 10 7 0 24 10
38 23 14 12 31 23 39 25 8 2 17 9 21 15 4 7 8 8 8 4 0 -8 21 7 48 36 9 9 22
17 29 17 7 0 13 5 13 10 0 6 7 10 16 10 8 0 13 4 10 9 -3 5 6 12 20 15 15 4
24 9 21 13 -8 7 16 32 26 26 4 -2 7 1 7 7 0 6 4 9 9 5 5 -3 12 4 16 15 3 11
10 20 14 20 4 0 33 25 66 55 32 30 62 55 67 55 4 0 8 5 8 10 0 15 89 98 97 91
3 -3 3 2 0 12 -4 11 -3 16 3 12 6 -3 10 -1 10 5 0 6 5 8 10 5 6 -4 9 -2 8 3
-2 5 13 25 32 44 50 51 70 77 70 89 0 5 5 7 10 4 6 -3 10 -2 10 3 0 4 10 19
23 32 12 14 21 28 20 32 -2 5 1 7 6 5 5 -1 9 1 10 6 1 13 46 55 53 50 4 -2 5
4 1 13 -4 12 -3 15 5 10 7 -4 12 -3 12 3 0 5 13 24 30 42 16 18 28 34 26 36
-2 2 8 16 23 31 50 53 91 107 91 119 0 7 7 13 16 13 8 0 13 4 10 8 -3 5 13 28
34 52 21 24 36 48 33 54 -4 5 0 7 9 4 8 -4 15 -1 15 6 0 16 33 66 44 66 5 0 9
7 9 15 0 8 5 15 12 15 6 0 9 3 5 6 -3 4 4 15 16 25 12 10 18 18 12 19 -5 0 1
7 13 16 13 9 21 22 18 30 -3 8 1 14 9 14 13 0 19 12 16 32 0 4 8 10 19 13 11
4 18 11 15 16 -4 5 -2 9 3 9 6 0 13 11 16 25 4 14 11 23 16 20 9 -6 14 8 11
28 0 4 6 7 15 7 8 0 12 5 9 10 -3 6 1 13 9 16 9 3 14 10 11 14 -3 4 2 11 11
14 8 3 13 10 9 15 -3 5 5 17 17 26 13 8 22 19 20 23 -1 4 4 14 11 22 7 9 16
24 20 33 3 9 11 17 17 17 6 0 8 5 5 10 -3 6 -1 10 4 10 6 0 11 7 11 15 0 8 5
15 10 15 6 0 10 7 10 15 0 9 7 18 15 21 8 4 12 10 9 15 -3 5 0 9 7 9 7 0 10 3
7 6 -3 3 5 17 18 31 13 14 21 29 19 33 -3 4 2 10 10 14 8 3 15 13 15 21 0 9 5
13 10 10 6 -3 10 1 10 9 0 9 9 25 20 36 12 12 18 25 15 29 -2 5 2 12 11 15 8
3 20 19 25 36 6 16 15 30 20 30 5 0 9 7 9 15 0 8 4 15 10 15 5 0 9 6 7 13 -1
6 4 11 11 9 8 -1 11 2 8 7 -4 5 0 15 7 23 7 7 16 21 20 31 3 9 11 17 17 17 6
0 9 4 5 9 -3 5 2 17 11 25 8 9 13 16 9 16 -3 0 0 6 7 14 7 8 16 12 20 9 4 -2
5 3 2 11 -3 9 1 23 10 32 9 8 13 20 10 26 -4 6 -2 8 4 4 6 -3 13 3 17 14 3 11
11 20 16 20 6 0 7 5 4 10 -3 6 -2 10 4 10 6 0 13 11 17 24 3 14 14 32 25 42
10 9 16 21 13 25 -3 5 0 9 5 9 6 0 11 6 11 14 0 8 7 16 15 20 8 3 14 11 13 18
-2 7 2 12 9 11 7 -2 10 4 7 12 -4 8 -1 15 6 15 6 0 9 4 6 8 -3 5 6 20 20 35
13 15 24 29 24 32 -1 22 1 25 11 19 7 -4 10 -1 7 7 -3 8 1 20 9 27 7 8 10 18
7 24 -4 6 -3 9 2 6 5 -3 19 10 31 29 13 19 17 31 10 28 -6 -4 -4 0 6 8 9 8 17
19 17 26 0 6 5 11 12 11 6 0 9 3 5 6 -3 3 3 15 13 27 11 11 17 24 14 29 -3 4
0 8 6 8 6 0 9 4 6 9 -3 5 1 12 10 15 8 3 13 10 9 15 -3 5 3 16 13 23 11 7 20
18 21 23 4 26 13 45 23 45 6 0 9 3 5 6 -3 3 3 15 13 27 11 11 17 23 15 27 -3
5 2 11 11 14 9 4 14 9 10 13 -3 4 4 17 16 30 12 13 18 23 14 23 -4 0 2 13 13
29 12 16 21 34 21 39 0 6 5 14 12 18 7 5 8 3 3 -6 -5 -9 -4 -11 4 -6 6 4 9 11
6 16 -3 5 -1 11 5 15 6 4 8 11 5 16 -4 5 -2 9 3 9 5 0 12 9 15 21 3 12 10 18
15 15 6 -4 8 3 4 16 -4 16 -2 19 8 13 10 -6 12 -4 7 8 -3 9 0 18 9 21 8 3 14
12 14 21 0 8 4 15 9 15 5 0 12 11 15 25 4 14 11 25 17 25 6 0 8 4 5 8 -3 5 6
21 19 36 14 16 22 33 19 37 -3 5 0 9 6 9 7 0 9 7 6 16 -3 8 -2 13 3 10 8 -6
18 9 19 28 0 5 4 12 9 15 14 11 53 70 53 81 0 6 7 18 15 27 8 8 13 18 10 23
-3 4 2 10 10 14 8 3 15 15 15 26 0 11 5 20 11 20 5 0 15 14 20 30 6 16 15 30
19 30 8 0 25 48 22 62 -1 5 4 7 11 5 6 -1 11 4 10 11 -2 6 2 12 7 12 6 0 10 5
10 10 0 6 11 28 25 50 14 22 23 40 19 40 -3 0 1 7 8 15 29 33 37 43 32 48 -2
2 2 10 11 17 8 7 15 21 15 30 0 10 4 20 9 22 5 2 11 10 13 18 3 14 7 20 35 54
6 7 9 17 6 20 -4 3 -1 6 6 6 7 0 10 4 6 9 -3 6 3 14 12 20 10 5 17 12 16 15
-7 15 -2 37 6 31 8 -5 24 25 26 48 0 4 5 11 11 15 12 8 28 41 29 60 0 7 11 22
25 33 14 12 18 17 11 13 -9 -5 -6 5 7 23 12 17 22 36 22 43 0 6 5 8 10 5 6 -4
10 -3 9 2 -4 22 2 43 11 38 6 -3 10 0 10 8 0 8 11 34 24 58 14 24 22 47 19 52
-3 6 -2 7 4 4 9 -5 63 88 64 110 0 5 7 11 14 16 8 4 11 15 8 24 -4 10 -2 14 4
10 7 -4 14 5 18 23 4 17 11 28 16 24 5 -3 8 -2 7 3 -4 11 34 87 44 91 5 2 8 9
8 17 0 7 7 18 15 25 8 7 13 16 10 20 -3 5 1 15 9 23 8 8 12 17 9 21 -3 3 2 8
11 12 9 3 13 10 10 16 -3 5 2 18 12 29 9 10 14 19 10 19 -4 0 0 7 8 16 9 8 14
20 11 25 -4 5 2 9 12 9 15 0 16 2 3 10 -8 5 -10 10 -4 10 6 0 19 18 29 40 10
22 23 40 28 40 6 0 8 3 4 6 -3 4 5 27 18 52 13 25 21 50 18 55 -3 6 -2 7 4 4
13 -8 36 41 27 55 -4 7 -2 8 4 4 7 -4 12 -1 12 9 0 9 4 13 10 10 5 -3 7 0 4 8
-3 8 1 21 9 28 7 8 12 20 9 27 -2 6 1 12 6 12 10 0 22 25 22 43 -1 4 6 15 15
23 8 9 13 20 10 25 -4 5 -2 9 4 9 5 0 13 10 17 23 4 12 12 25 18 29 7 5 6 8
-3 8 -9 0 -6 7 9 20 15 13 18 20 9 20 -10 1 -8 5 5 15 11 8 16 15 10 15 -5 0
0 7 10 15 11 9 14 15 7 15 -9 0 -8 5 3 16 9 8 14 20 11 25 -4 5 -1 9 5 9 6 0
9 4 6 9 -3 5 1 14 10 21 8 7 13 19 10 25 -2 7 4 18 14 25 10 7 16 19 13 27 -3
7 0 13 7 13 6 0 8 5 5 10 -3 6 -1 10 4 10 6 0 10 3 10 7 -4 17 24 73 34 73 8
0 8 3 -1 8 -9 6 -8 13 5 28 18 20 25 37 26 62 0 6 3 12 7 12 10 0 31 50 25 60
-3 4 2 11 11 14 8 3 13 10 9 15 -3 5 -1 12 5 16 6 4 8 11 5 16 -4 5 -1 9 5 9
6 0 9 4 5 9 -3 5 2 17 11 25 8 9 13 16 9 16 -3 0 1 12 8 28 8 15 12 33 9 41
-3 8 0 11 6 7 12 -7 27 29 18 43 -3 5 1 12 10 15 9 4 14 13 10 21 -3 8 -1 15
5 15 6 0 8 4 4 9 -3 5 0 13 6 16 5 4 8 14 5 22 -3 8 -1 11 4 8 6 -3 11 1 11 9
3 35 5 41 16 39 5 -1 9 9 7 22 -1 14 3 25 9 25 5 0 8 3 4 6 -3 4 0 19 9 35 8
16 12 29 8 29 -4 0 -1 7 6 15 7 8 9 15 4 15 -5 0 -2 6 6 13 8 7 16 23 16 37 2
39 3 42 13 36 4 -3 7 6 5 19 -1 14 2 25 7 25 6 0 9 6 8 13 -3 25 1 38 10 32 6
-3 8 3 6 15 -2 11 1 22 7 26 6 4 5 10 -3 15 -11 7 -11 9 -1 9 7 0 10 5 7 10
-3 6 -1 10 4 10 6 0 11 10 11 23 0 12 7 34 14 49 9 16 11 30 5 33 -5 4 -2 16
6 29 8 12 12 26 8 29 -3 4 2 17 13 29 10 12 13 18 7 14 -7 -4 -13 -2 -13 3 0
6 4 11 9 11 5 0 8 11 6 25 -1 14 1 25 5 25 5 0 7 13 6 29 -1 17 2 27 7 24 5
-3 8 3 7 13 -1 11 -1 22 0 27 1 4 3 10 4 15 1 4 5 13 10 21 6 10 5 12 -2 7 -7
-4 -12 -2 -12 3 0 6 4 11 9 11 5 0 7 9 4 20 -3 13 0 20 8 20 12 0 12 2 0 9 -9
6 -10 10 -2 16 9 5 9 10 0 21 -9 11 -9 14 1 14 7 0 10 6 7 14 -3 7 0 19 6 26
9 10 9 11 0 6 -6 -3 -14 -2 -18 4 -3 5 0 10 7 10 16 0 18 51 3 62 -6 5 -6 8 1
8 14 0 13 142 -1 152 -6 5 -5 8 2 8 7 0 10 7 7 15 -4 8 -11 12 -18 8 -6 -3 -6
-1 2 8 15 16 16 43 1 33 -8 -4 -8 0 0 15 7 11 8 21 4 21 -4 0 -8 10 -8 23 -1
12 -5 33 -9 46 -6 16 -5 21 3 17 12 -8 -4 37 -23 63 -8 11 -8 13 2 7 16 -9 15
2 -1 34 -8 14 -13 38 -13 52 1 15 -2 24 -6 22 -4 -3 -8 -2 -9 3 0 4 -3 19 -5
33 -2 14 -5 31 -6 38 -1 6 -4 12 -8 12 -3 0 -6 10 -7 22 -1 11 -6 24 -10 27
-4 3 -9 13 -11 21 -2 8 -8 17 -13 18 -5 2 -6 8 -3 13 3 6 -4 19 -16 29 -12 10
-19 23 -16 29 4 5 -3 12 -14 16 -18 6 -25 17 -21 38 1 5 -3 6 -9 2 -5 -3 -13
1 -16 9 -3 9 -13 16 -22 16 -8 0 -12 3 -9 6 4 4 -4 16 -18 28 l-24 21 41 29
c23 17 38 24 33 16 -5 -8 5 -4 22 8 17 12 36 22 42 22 6 0 17 11 23 25 6 14
18 25 27 26 9 0 11 3 4 5 -7 3 -2 14 13 31 13 14 24 31 24 37 0 6 -5 4 -10 -4
-6 -9 -10 -10 -10 -3 0 7 8 17 18 22 10 6 12 11 4 11 -9 0 -10 5 -3 17 5 10 8
44 7 75 -1 32 2 54 7 51 5 -3 4 4 -2 15 -14 27 -14 35 2 26 10 -6 10 -4 0 7
-16 16 -17 33 -2 23 8 -4 8 -1 2 12 -11 23 -11 34 1 53 6 10 5 12 -2 7 -7 -4
-12 -1 -12 9 0 10 5 13 13 9 9 -6 9 -4 1 7 -6 8 -10 56 -9 111 0 57 -3 94 -9
91 -5 -4 -6 -1 -1 7 11 18 14 120 3 120 -4 0 -3 12 3 27 5 14 6 29 2 32 -12 9
-14 31 -3 31 7 0 7 6 0 19 -7 14 -6 21 3 24 8 4 8 6 0 6 -6 1 -9 10 -5 23 4
16 2 19 -9 13 -11 -6 -12 -5 -1 6 6 7 12 19 12 27 0 8 -5 10 -12 6 -10 -6 -10
-5 -1 7 10 12 10 18 1 27 -9 9 -9 12 1 12 8 0 11 6 7 15 -3 8 -9 22 -13 32 -5
12 -3 14 8 8 11 -7 12 -6 3 6 -6 8 -10 24 -8 37 2 12 -1 22 -7 22 -5 0 -8 4
-5 8 3 5 24 8 48 8 24 -1 46 4 50 9 5 6 8 5 8 -3 0 -8 5 -10 12 -6 7 5 30 7
51 5 21 -1 45 3 54 11 14 11 16 11 9 -2 -4 -8 0 -6 8 4 20 25 23 141 4 130 -9
-5 -9 -2 1 9 10 13 11 20 2 31 -8 10 -9 16 -1 21 13 8 13 52 0 60 -6 4 -8 10
-6 14 11 17 14 61 4 61 -6 0 -6 6 2 15 8 9 9 15 2 15 -14 0 -7 37 10 59 12 14
11 15 -4 2 -20 -15 -25 -2 -6 17 9 9 9 12 -1 12 -11 0 -11 3 -1 15 7 8 9 15 4
15 -5 0 -10 48 -12 107 -2 64 -8 113 -15 122 -10 12 -9 13 1 7 11 -6 12 -1 7
25 -3 19 -8 70 -10 114 -2 44 -5 82 -6 85 -1 3 -1 13 0 23 1 9 -4 17 -11 17
-10 0 -10 2 1 9 9 6 10 11 2 15 -8 5 -8 13 -1 26 6 10 6 21 2 24 -8 5 -16 71
-15 129 0 15 -3 27 -8 27 -4 0 -5 14 -2 31 3 24 2 29 -9 23 -10 -6 -10 -4 1 9
7 9 9 17 4 17 -5 0 -8 12 -7 28 1 15 -4 33 -10 41 -9 12 -8 13 3 6 11 -6 12
-5 5 6 -8 14 -9 19 -15 97 -2 23 -6 42 -10 42 -3 0 -6 8 -6 18 0 65 -4 83 -15
76 -10 -6 -10 -4 0 8 7 9 9 19 4 22 -5 3 -8 15 -7 28 1 13 -5 31 -13 41 -15
16 -14 17 2 11 18 -7 18 -6 0 22 -12 18 -14 25 -5 20 10 -7 12 -6 6 5 -5 7
-10 27 -11 44 -1 16 -3 31 -4 33 -2 1 -3 5 -4 10 -1 4 -4 12 -7 17 -4 6 -5 18
-4 28 2 9 -2 17 -8 17 -7 0 -5 5 3 10 11 7 11 10 2 10 -7 0 -11 4 -8 9 4 5 0
12 -6 14 -10 4 -9 6 1 6 11 1 11 4 1 16 -7 9 -10 18 -7 22 4 3 1 13 -6 21 -10
13 -9 14 3 7 13 -8 13 -7 1 8 -7 9 -10 17 -6 17 4 0 1 8 -6 17 -12 15 -12 16
1 8 9 -5 8 0 -4 13 -13 15 -15 22 -6 22 9 0 10 3 1 14 -6 8 -11 18 -10 22 1 5
0 12 -1 17 -5 15 -8 27 -9 43 -1 9 -6 12 -13 8 -9 -5 -9 -2 1 9 8 11 10 22 4
30 -5 6 -10 26 -12 42 -2 17 -6 32 -10 35 -3 3 -6 16 -6 30 0 14 -4 31 -9 38
-5 7 -6 15 -3 19 4 3 2 12 -3 19 -6 6 -13 25 -15 40 -14 78 -18 94 -26 94 -5
0 -9 7 -9 16 0 9 5 13 13 9 6 -4 5 -1 -3 7 -9 7 -15 25 -15 41 1 15 -3 27 -8
27 -5 0 -6 7 -3 16 4 10 2 13 -6 8 -7 -5 -9 -2 -5 8 3 9 0 21 -6 27 -9 9 -8
14 3 21 13 8 12 10 -3 10 -11 0 -17 5 -14 13 2 6 -2 25 -10 41 -12 22 -12 26
-1 20 10 -6 10 -4 -1 9 -7 9 -10 17 -5 17 4 0 -1 7 -12 15 -13 10 -14 14 -5
15 11 0 11 3 1 15 -6 8 -9 19 -6 24 4 5 -2 14 -11 20 -12 7 -13 10 -4 11 10 0
11 3 2 13 -6 8 -8 17 -4 20 3 4 1 7 -6 7 -7 0 -10 4 -6 9 3 5 1 12 -4 16 -5 3
-8 14 -6 25 2 11 0 20 -6 20 -5 0 -9 11 -9 25 0 14 -7 28 -16 32 -11 4 -12 8
-4 13 8 5 7 12 -5 24 -12 12 -13 16 -3 16 9 0 10 2 2 8 -7 4 -14 18 -15 32 -2
14 -7 27 -11 30 -4 3 -9 16 -11 28 -2 12 -6 25 -10 28 -4 4 -7 16 -7 26 0 10
-6 18 -12 18 -9 0 -8 4 2 10 8 5 10 10 5 10 -11 0 -42 87 -37 103 1 5 -2 6 -8
2 -6 -4 -10 4 -10 19 0 14 -4 26 -9 26 -5 0 -8 8 -7 17 2 10 -5 31 -16 48 -21
35 -23 49 -6 39 7 -5 3 5 -10 20 -12 16 -19 32 -16 37 3 5 1 9 -3 9 -5 0 -15
21 -22 48 -8 26 -21 53 -29 60 -9 7 -11 12 -4 12 6 0 9 7 6 15 -4 8 -9 13 -13
10 -4 -2 -8 1 -8 8 -1 21 -8 42 -16 48 -5 3 -9 12 -11 20 -5 31 -18 59 -26 59
-5 0 -7 9 -5 20 2 11 -3 27 -12 35 -8 9 -12 22 -9 31 3 8 2 12 -4 9 -6 -3 -10
1 -10 9 0 9 -5 16 -11 16 -5 0 -7 5 -4 10 4 6 1 18 -7 27 -7 9 -12 19 -12 22
1 3 -1 5 -5 4 -4 -1 -8 3 -9 10 -2 31 -13 62 -29 80 -10 11 -12 17 -5 13 11
-7 11 -4 1 12 -7 12 -17 18 -23 15 -5 -3 -6 -1 -2 5 4 6 0 25 -9 42 -8 16 -12
30 -8 30 5 0 3 4 -3 8 -12 9 -64 107 -64 123 0 6 -7 17 -15 26 -8 8 -13 19
-10 24 4 5 1 9 -4 9 -6 0 -11 7 -11 15 0 8 -5 15 -10 15 -6 0 -9 3 -8 8 1 4
-3 17 -10 30 -7 12 -9 22 -5 22 4 0 0 5 -9 11 -10 5 -18 17 -18 24 0 8 -5 15
-11 15 -5 0 -7 5 -4 10 3 6 -1 13 -9 16 -9 3 -13 10 -10 15 3 5 0 9 -5 9 -6 0
-11 7 -11 15 0 8 -5 15 -11 15 -5 0 -7 5 -4 10 3 6 1 10 -5 10 -6 0 -8 5 -5
10 3 6 -1 10 -10 10 -9 0 -14 4 -10 9 3 5 1 12 -5 16 -6 4 -7 12 -4 18 4 7 4
9 0 5 -10 -8 -36 14 -29 25 2 4 -1 7 -7 7 -6 0 -8 5 -5 10 3 6 -1 10 -10 10
-9 0 -13 5 -10 10 3 6 1 10 -4 10 -6 0 -11 7 -11 15 0 8 -4 15 -10 15 -5 0
-10 6 -10 13 0 7 -9 19 -19 27 -11 7 -18 17 -15 22 3 4 0 8 -7 8 -7 0 -10 3
-6 6 3 4 -1 13 -9 21 -8 8 -11 19 -8 25 4 7 2 8 -4 4 -7 -4 -12 -1 -12 8 0 9
-4 16 -8 16 -5 0 -20 21 -33 48 -13 26 -32 56 -41 66 -10 11 -18 24 -18 28 0
10 -41 70 -55 80 -7 5 -7 8 0 8 6 0 3 6 -6 13 -16 12 -19 18 -19 38 0 5 -4 8
-8 5 -5 -3 -9 0 -9 7 0 17 -33 67 -45 67 -5 0 -7 4 -3 9 3 6 -5 19 -17 31 -13
12 -23 24 -23 28 -2 20 -18 52 -26 52 -5 0 -9 7 -9 16 0 8 -4 12 -10 9 -5 -3
-10 3 -10 14 0 12 -5 21 -12 21 -6 0 -8 3 -5 7 4 3 -5 17 -19 30 -14 12 -22
23 -18 23 4 0 -1 9 -11 20 -10 11 -15 20 -12 20 4 0 -1 8 -10 18 -25 26 -55
69 -55 79 0 4 -11 18 -24 29 -12 12 -20 25 -17 28 4 3 1 6 -5 6 -7 0 -12 5
-12 11 0 6 -20 35 -45 66 -25 30 -42 60 -38 65 3 7 1 8 -5 4 -6 -3 -16 2 -21
12 -10 19 -69 94 -96 123 -8 9 -15 20 -15 25 0 5 -9 15 -20 22 -11 7 -20 17
-20 23 0 5 -12 21 -26 34 -15 14 -24 25 -21 25 4 0 -1 9 -10 19 -9 11 -21 17
-27 14 -6 -3 -8 -3 -4 1 4 5 -4 20 -17 34 -13 14 -21 30 -18 36 3 6 3 8 -2 4
-7 -7 -35 14 -35 27 0 4 -13 20 -30 35 -16 15 -30 33 -30 40 0 6 -4 8 -10 5
-5 -3 -10 1 -10 9 0 8 -9 17 -20 21 -11 3 -19 9 -17 13 3 12 -29 52 -36 45 -4
-3 -7 1 -7 10 0 10 -7 17 -15 17 -8 0 -15 4 -15 10 0 5 -15 25 -34 44 -19 19
-32 37 -29 40 4 3 0 6 -9 6 -8 0 -21 11 -28 25 -7 14 -15 23 -18 21 -2 -3 -21
15 -42 39 -21 24 -41 41 -44 38 -3 -4 -6 -2 -6 4 0 12 -99 113 -110 113 -5 0
-12 9 -15 20 -3 11 -10 20 -15 20 -5 0 -34 25 -65 55 -30 30 -60 55 -65 55 -6
0 -10 7 -10 15 0 8 -6 15 -14 15 -7 0 -23 14 -36 30 -13 17 -29 30 -36 30 -8
0 -14 8 -14 17 0 9 -3 14 -6 10 -3 -3 -21 9 -40 26 -77 74 -93 87 -104 87 -6
0 -8 5 -5 10 6 9 -8 14 -28 11 -5 -1 -6 2 -4 6 3 5 -1 14 -9 21 -8 7 -14 10
-14 7 0 -3 -10 4 -23 17 -13 13 -38 34 -56 48 -18 14 -44 35 -57 48 -13 13
-24 19 -24 15 0 -4 -10 3 -21 17 -11 14 -17 18 -13 10 5 -8 -9 2 -30 23 -22
20 -41 35 -44 33 -2 -3 -14 5 -27 17 -33 32 -65 58 -65 52 0 -5 -38 26 -66 53
-8 7 -14 11 -14 7 0 -4 -7 1 -16 9 -8 9 -20 13 -26 10 -7 -4 -8 -2 -4 4 4 7 1
12 -8 12 -9 0 -16 7 -16 16 0 8 -4 12 -10 9 -5 -3 -10 -1 -10 4 0 6 -8 11 -18
11 -10 0 -24 9 -32 20 -8 11 -21 20 -29 20 -7 0 -21 9 -30 19 -10 11 -24 21
-32 23 -8 2 -21 11 -30 20 -9 10 -19 15 -23 11 -3 -3 -6 -1 -6 5 0 7 -9 12
-21 12 -11 0 -17 5 -14 10 3 6 1 10 -5 10 -6 0 -20 9 -32 20 -12 11 -29 20
-39 20 -9 0 -20 7 -23 16 -3 8 -10 13 -14 10 -5 -3 -14 4 -22 14 -8 10 -17 17
-21 14 -4 -2 -13 2 -21 9 -7 7 -28 19 -45 26 -18 7 -33 17 -33 22 0 5 -7 9
-15 9 -8 0 -15 5 -15 11 0 5 -4 7 -10 4 -5 -3 -10 -1 -10 5 0 7 -7 9 -16 6 -8
-3 -12 -2 -9 4 3 6 -1 10 -9 10 -9 0 -16 5 -16 10 0 6 -9 10 -20 10 -11 0 -20
5 -20 10 0 6 -7 10 -15 10 -8 0 -15 5 -15 11 0 5 -4 7 -10 4 -5 -3 -10 -1 -10
5 0 6 -4 9 -9 6 -5 -4 -11 -3 -13 2 -1 4 -36 24 -75 43 -40 20 -70 39 -66 42
3 4 -1 7 -9 7 -9 0 -59 23 -112 50 -54 28 -101 48 -107 45 -5 -4 -9 1 -9 10 0
9 -4 13 -10 10 -5 -3 -10 -1 -10 4 0 6 -3 10 -7 9 -15 -4 -53 13 -53 24 0 5
-7 8 -15 4 -8 -3 -21 2 -30 10 -8 8 -19 12 -25 9 -5 -3 -10 -2 -10 4 0 5 -17
15 -37 22 -21 7 -44 19 -51 28 -8 9 -11 11 -8 4 5 -8 -2 -7 -21 2 -16 7 -35
15 -43 17 -8 2 -21 10 -28 18 -12 13 -13 13 -6 0 5 -10 1 -9 -14 3 -11 11 -25
16 -31 13 -5 -3 -11 -1 -13 4 -2 6 -13 12 -25 13 -13 0 -25 7 -27 14 -3 7 -17
13 -31 13 -14 0 -25 4 -25 10 0 5 -7 7 -15 4 -8 -4 -15 -1 -15 5 0 6 -11 11
-25 11 -14 0 -25 5 -25 11 0 5 -4 7 -10 4 -5 -3 -10 -1 -10 6 0 7 -3 10 -6 7
-3 -4 -21 0 -40 8 -19 8 -40 12 -46 8 -7 -4 -8 -3 -4 4 4 8 0 12 -11 12 -11 0
-24 5 -31 12 -9 9 -12 9 -12 -2 0 -9 -6 -7 -17 6 -10 11 -26 18 -35 16 -10 -2
-18 1 -18 7 0 5 -9 8 -20 6 -11 -2 -20 0 -20 4 0 5 -20 14 -45 21 -25 7 -45
18 -45 24 0 6 -5 4 -10 -4 -7 -11 -10 -11 -10 -2 0 7 -4 11 -9 7 -5 -3 -13 -1
-16 5 -4 6 -16 8 -27 4 -14 -4 -18 -2 -14 5 5 7 -2 11 -18 11 -14 0 -28 5 -31
10 -3 6 -19 10 -35 10 -16 0 -32 5 -35 10 -3 6 -20 10 -36 10 -17 0 -28 4 -25
8 5 8 -18 13 -66 15 -15 1 -24 5 -22 9 5 8 -10 12 -33 9 -6 -1 -14 3 -18 9 -3
5 -20 10 -36 10 -22 0 -28 4 -23 13 5 8 2 8 -9 -2 -11 -9 -17 -10 -17 -2 0 6
-11 11 -24 11 -14 0 -27 4 -31 9 -3 6 -13 10 -23 10 -39 1 -52 5 -52 14 0 5
-7 4 -15 -3 -12 -10 -15 -10 -15 0 0 7 -7 10 -15 6 -9 -3 -18 1 -21 9 -4 8
-10 15 -16 15 -5 0 -7 -4 -4 -8 3 -5 -1 -9 -9 -9 -8 0 -12 3 -10 7 2 4 -10 7
-27 8 -17 0 -34 4 -37 9 -3 4 -21 9 -40 10 -19 1 -38 8 -42 15 -7 10 -9 10 -9
-2 0 -9 -3 -11 -8 -5 -8 11 -17 14 -60 18 -15 2 -34 7 -41 12 -10 6 -12 4 -6
-6 7 -11 6 -12 -7 -2 -8 7 -27 14 -42 15 -14 1 -26 7 -26 13 0 5 -5 3 -10 -5
-5 -8 -10 -10 -10 -4 0 6 -6 11 -12 12 -7 0 -30 2 -50 3 -21 1 -38 6 -38 10 0
4 -9 6 -20 4 -11 -2 -22 0 -25 5 -3 4 -14 6 -25 3 -13 -3 -20 0 -20 8 0 11 -2
11 -10 -1 -8 -12 -12 -12 -18 -2 -5 7 -13 12 -18 11 -28 -5 -84 2 -79 10 6 11
-28 7 -47 -5 -7 -5 -8 -3 -3 6 6 10 3 12 -13 8 -13 -4 -22 -1 -22 5 0 7 -5 5
-10 -3 -6 -9 -10 -11 -10 -3 0 7 -7 10 -15 7 -8 -4 -22 -1 -29 5 -10 9 -16 9
-21 1 -4 -7 -11 -8 -18 -2 -7 6 -37 12 -67 16 -74 8 -201 18 -223 18 -11 -1
-15 4 -10 11 4 7 0 6 -10 -2 -11 -8 -17 -9 -17 -2 0 7 -8 8 -25 1 -13 -5 -27
-6 -29 -1 -3 4 -21 8 -41 9 -20 1 -40 4 -45 7 -6 4 -10 1 -10 -6 0 -7 -4 -8
-12 -2 -15 11 -28 11 -45 0 -7 -4 -16 0 -22 10 -8 14 -10 15 -11 3 0 -13 -1
-13 -10 0 -8 13 -11 13 -19 1 -5 -8 -14 -10 -22 -5 -19 11 -72 13 -85 3 -7 -6
-16 -3 -24 6 -11 13 -15 13 -21 3 -6 -8 -9 -9 -9 -2 0 8 -11 9 -34 4 -27 -6
-33 -5 -29 6 3 8 0 14 -6 14 -6 0 -11 -5 -11 -11 0 -6 -9 -8 -21 -4 -15 5 -19
4 -14 -5 6 -9 3 -9 -12 -1 -14 7 -24 7 -33 -2 -10 -9 -11 -9 -6 0 3 6 2 14 -4
18 -5 3 -10 2 -10 -2 0 -5 -9 -9 -20 -10 -11 -1 -20 3 -20 8 0 6 -6 7 -12 2
-20 -12 -38 -12 -38 -1 0 7 -5 7 -12 1 -15 -11 -28 -11 -45 0 -6 4 -15 2 -19
-4 -5 -8 -3 -9 6 -4 9 6 11 4 6 -4 -6 -10 -12 -9 -24 1 -15 13 -32 15 -47 8
-14 -7 -31 -5 -44 4 -11 8 -13 8 -7 -2 6 -9 1 -12 -18 -10 -14 2 -28 7 -32 10
-8 9 -35 -2 -29 -12 2 -4 -7 -5 -20 -2 -14 2 -22 8 -19 13 7 12 0 11 -13 -2z"/>
<path d="M1500 12060 c0 -5 5 -10 11 -10 5 0 7 5 4 10 -3 6 -8 10 -11 10 -2 0
-4 -4 -4 -10z"/>
</g>
</svg>
