<svg xmlns="http://www.w3.org/2000/svg" viewBox="0 0 162.59 190.78" fill="currentColor" width="1em" height="1em">
	<rect x="215.24" y="199.94" width="32" height="48" rx="1.99" transform="translate(-266.02 89.19) rotate(-45)" />
	<rect x="271.81" y="143.37" width="32" height="48" rx="1.99" transform="translate(-209.45 112.62) rotate(-45)" />
	<rect x="266.15" y="250.85" width="32" height="48" rx="1.99" transform="translate(-287.11 140.1) rotate(-45)" />
	<path d="M175.79,245.44a1.83,1.83,0,0,0,.29,2.54L203,274.85l28.29,28.29L258.12,330a1.83,1.83,0,0,0,2.53.28L281,309.92a1.81,1.81,0,0,0-.28-2.53l-26.87-26.88-28.29-28.28L198.7,225.35a1.82,1.82,0,0,0-2.53-.28Z" transform="translate(-175.4 -139.91)" />
	<path d="M232.36,188.88a1.83,1.83,0,0,0,.28,2.53l26.88,26.87,28.29,28.29,26.87,26.88a1.84,1.84,0,0,0,2.54.28l20.37-20.38a1.82,1.82,0,0,0-.28-2.53l-26.88-26.88-28.28-28.28-26.88-26.88a1.82,1.82,0,0,0-2.53-.28Z" transform="translate(-175.4 -139.91)" />
</svg>
